<svg width="206" height="60" xmlns="http://www.w3.org/2000/svg"><g fill="#7F7F7F" fill-rule="nonzero"><path d="M108.812 35.946c0 4.022-4.974 3.784-4.974 3.784h-4.974v-7.271h4.974c5.122-.03 4.974 3.487 4.974 3.487zm-9.948-14.572h3.79c3.938.209 3.79 3.158 3.79 3.158 0 3.666-4.353 3.725-4.353 3.725h-3.227v-6.883zm9.03 8.314s3.405-1.46 3.376-5.334c0 0 .517-6.347-7.839-7.122h-9.274v26.61h10.629s8.882.03 8.882-7.51c0 0 .207-5.125-5.773-6.644zm-23.997-17.67h39.038v37.025H83.897V12.017zM63.795 35.946c0 4.022-4.974 3.784-4.974 3.784h-4.974v-7.271h4.974c5.122-.03 4.974 3.487 4.974 3.487zm-9.948-14.572h3.79c3.937.209 3.789 3.158 3.789 3.158 0 3.666-4.352 3.725-4.352 3.725h-3.227v-6.883zm9.03 8.314s3.405-1.46 3.375-5.334c0 0 .518-6.347-7.839-7.122H49.14v26.61h10.63s8.881.03 8.881-7.51c0 0 .207-5.125-5.773-6.644zm-23.998-17.67h39.038v37.025H38.88V12.017zM159.988 19.14v4.916s-4.767-2.95-10.037-3.01c0 0-9.83-.193-10.273 9.484 0 0-.355 8.903 10.155 9.41 0 0 4.412.536 10.392-3.308v5.095s-8.023 4.798-17.32 1.103c0 0-7.816-2.875-8.113-12.3 0 0-.325-9.692 10.096-12.91 0 0 2.784-1.073 7.787-.597 0 0 2.99.299 7.313 2.116zm-31.074 29.903h39.038V12.017h-39.038v37.026z"/></g></svg>