<svg width="206" height="60" xmlns="http://www.w3.org/2000/svg"><path d="M16.96 36.046c-.544-2.74-2.14-3.7-3.736-3.7h-.068v7.365c0 6.508 0 6.748.407 7.124.272.274.68.411 1.427.446v.445H7.178v-.445c.78 0 1.188-.137 1.46-.411.34-.343.408-.617.408-7.09v-7.365h-.068c-1.597 0-3.159 1.027-3.736 3.7H4.8V31.66h12.567v4.453h-.34l-.067-.068zm9.646 11.646v-.411c.68 0 .917-.172 1.087-.343.34-.41.408-.788.408-6.919h-4.416c0 6.166 0 6.508.442 6.92.17.17.34.342 1.019.342v.445h-7.1v-.445c.68 0 .918-.172 1.088-.343.407-.41.441-.788.441-7.262 0-6.473 0-6.85-.441-7.261-.204-.206-.442-.343-1.087-.343v-.445h7.2v.411c-.679 0-.916.137-1.086.343-.408.342-.476.685-.476 6.576h4.416c0-5.823-.068-6.165-.408-6.576-.204-.206-.441-.343-1.087-.343v-.445h7.133v.41c-.68 0-.883.138-1.019.343-.407.411-.441.685-.441 7.262 0 6.508 0 6.85.34 7.262.237.17.475.342 1.12.342v.445h-7.133v.035zm19.633 0H34.622v-.411c.68 0 .917-.172 1.087-.343.34-.41.408-.788.408-7.262 0-6.473 0-6.85-.408-7.261-.204-.206-.441-.343-1.087-.343v-.445h11.413l.068 4.453h-.442c-.475-2.158-1.426-3.597-3.634-3.597h-1.698v6.508h.78c1.801 0 2.718-.445 2.99-2.26h.441v5.754h-.34c-.237-1.712-1.154-2.397-3.056-2.397h-.781v3.973c0 1.918.34 2.74 2.241 2.74 2.038 0 3.057-1.301 3.567-3.665h.407l-.237 4.521-.102.035zm10.02.274c-1.597 0-2.955-.583-3.567-.583-.34 0-.611.103-.917.343h-.441V43.17h.475c.34 2.467 1.698 3.905 4.144 3.905 1.97 0 2.65-1.267 2.65-2.398 0-3.665-7.303-3.356-7.303-8.357 0-2.5 1.426-4.933 5.095-4.933 1.29 0 2.615.48 3.192.48.408 0 .578-.069.782-.24h.34v4.453h-.442c-.408-1.781-1.495-3.836-3.94-3.836-1.63 0-2.378.924-2.378 1.918 0 3.357 7.812 3.151 7.812 8.769 0 2.877-2.31 5.069-5.536 5.069l.034-.034zm18.919-13.462v6.85c0 3.906-1.359 6.646-5.774 6.646-4.178 0-5.876-2.398-5.876-5.035v-5.823c0-3.22-.136-4.385-.442-4.693-.204-.205-.442-.342-1.087-.342v-.446h7.2v.411c-.678 0-.916.137-1.086.343-.34.342-.442 1.438-.442 4.864v6.268c0 2.055 1.087 3.083 2.921 3.083 2.242 0 3.397-1.713 3.397-5.24v-6.92c0-1.713-.136-2.226-1.698-2.466v-.411h4.585v.41c-1.562.275-1.698.754-1.698 2.467v.034zm15.353-.034v13.256h-2.174l-8.254-11.475v8.563c0 1.713.17 2.227 1.698 2.467v.445H77.25v-.445c1.494-.206 1.698-.685 1.698-2.398v-5.275c0-6.508-.068-6.85-.475-7.193-.204-.24-.442-.343-1.121-.411v-.411h5.264l6.726 9.488V34.47c0-1.713-.17-2.226-1.699-2.466v-.411h4.586v.41c-1.529.275-1.698.754-1.698 2.467zm9.986 13.256h-7.473v-.48c.68 0 .883-.17 1.02-.342.44-.411.475-.788.475-7.262 0-6.508 0-6.85-.442-7.193-.17-.24-.408-.342-1.019-.41v-.412h7.133c4.925 0 7.676 2.946 7.676 8.084 0 4.555-1.596 8.05-7.37 8.05v-.035zM99.6 32.483h-.918V44.37c0 1.576.272 2.57 2.106 2.57 2.106 0 2.786-2.741 2.786-7.263 0-3.973-1.02-7.193-3.974-7.193zm14.877 15.311v-.445c1.358-.137 2.038-.41 2.038-1.164 0-.274-.238-1.097-1.087-3.563h-4.144c-.611 2.055-.917 3.152-.917 3.357 0 .89.475 1.37 1.46 1.37v.445H106.7v-.445c1.63-.342 1.936-.582 2.785-3.083l4.076-12.57h2.819l4.585 13.358c.51 1.542.85 2.158 1.97 2.295v.445h-8.457zm-1.155-11.44l-1.698 5.206h3.566l-1.8-5.206h-.068zm19.089-1.61l-2.717 5.823c0 5.686 0 6.063.407 6.44.204.17.51.342 1.359.342v.445h-7.71v-.445c.95 0 1.188-.171 1.358-.342.408-.343.476-.754.476-6.406l-2.887-5.583c-1.36-2.74-1.461-2.74-2.718-2.911v-.446h7.575v.411c-.951 0-1.359.24-1.359.857 0 .274.136.548.781 1.85l2.174 4.28 1.8-3.767c.544-1.267.883-1.987.883-2.398 0-.445-.237-.856-1.154-.89v-.445h4.347v.41c-1.358.138-1.528.343-2.581 2.604l-.034.171zm17.9 1.199c-.543-2.74-2.14-3.7-3.736-3.7v7.365c0 6.508 0 6.748.34 7.125.271.274.679.41 1.426.445v.445h-7.676v-.445c.679 0 1.12-.137 1.358-.411.34-.343.408-.617.408-7.09v-7.365c-1.63 0-3.227 1.028-3.736 3.7h-.51v-4.453h12.568v4.452h-.442v-.068zm1.121 11.646v-.411c.68 0 .917-.171 1.087-.343.34-.41.34-.787.34-7.261s0-6.85-.34-7.262c-.238-.205-.476-.342-1.155-.342v-.446h7.2v.411c-.678 0-.916.137-1.086.343-.408.41-.408.685-.408 7.261 0 6.509 0 6.851.408 7.262.204.171.442.343 1.087.343v.445h-7.201.068zm18.885 0v-.411c.68 0 .917-.171 1.087-.343.408-.41.442-.787.442-7.261v-4.35l-4.212 12.433h-1.29l-4.349-12.468v9.591c0 1.713.17 2.158 1.699 2.398v.411h-4.246v-.445c1.359-.206 1.528-.685 1.528-2.398v-5.138c0-6.508 0-6.85-.441-7.193-.17-.24-.408-.343-1.087-.411v-.411h5.944l3.295 9.796 3.396-9.796h5.435v.41c-.68 0-.917.172-1.087.343-.408.446-.441.754-.441 7.296 0 6.508 0 6.92.441 7.296.204.171.408.343 1.087.343v.445h-7.2v-.137zm19.633 0H178.4v-.411c.68 0 .883-.171 1.02-.343.44-.41.475-.787.475-7.261s0-6.85-.442-7.262c-.136-.205-.34-.342-1.019-.342v-.446h11.379l.068 4.453h-.408c-.475-2.158-1.427-3.596-3.634-3.596h-1.767v6.508h.85c1.902 0 2.785-.446 3.057-2.261h.441v5.754h-.543c-.272-1.712-1.155-2.397-3.057-2.397h-.815v4.076c0 1.918.34 2.74 2.241 2.74 2.038 0 3.057-1.301 3.533-3.665h.441l-.34 4.521.069-.068zm6.114.274c-1.563 0-2.956-.582-3.567-.582-.34 0-.611.102-.917.342h-.408l.272-4.555h.408c.17 2.397 1.528 3.904 3.906 3.904 2.038 0 2.717-1.267 2.717-2.397 0-3.665-7.337-3.357-7.337-8.358 0-2.5 1.461-4.933 5.095-4.933 1.359 0 2.65.48 3.227.48.34 0 .544-.068.747-.24h.34v4.453h-.442c-.407-1.781-1.494-3.836-3.94-3.836-1.63 0-2.377.925-2.377 1.918 0 3.357 7.812 3.151 7.812 8.769 0 2.877-2.378 5.07-5.57 5.07l.034-.035zM136.385 27.14c-.815-.206-2.276-.685-3.057-1.028.68-.342 1.97-1.027 2.717-1.712-3.057.48-3.396.685-5.298.513v-.342c0-.445-.68-.582-1.597-.582l-1.868.17c.204-.41-.068-.753-.543-.753-.68 0-1.36.137-2.038.343.577-.685.747-1.439.543-2.398.34 0 .17.925.917 1.096-.272-.856 1.087-1.027 1.087-1.918 0-.171-.17-.343-.442-.205v-.172c0-.137 0-.274-.067-.41-.136-.686.543-.754.543-1.474 0-.205-.136-.342-.34-.342a.517.517 0 0 0-.34.137c.103-.343.238-.48.238-.788 0-.445-.34-.617-.679-.411.102-.274.136-.548.136-.685 0-.411-.204-.582-.408-.582-.203 0-.34.205-.475.48-.068-.583-.068-1.234-.612-1.234-.203 0-.34.103-.441.24-.34-.411-.577-.788-1.121-.788-.611 0-1.12.342-1.427.959-.17-.342-.475-.685-.815-.685-.136 0-.271.137-.271.343 0 0 .17.17.17.24-.17 0-.34-.103-.34-.103h-.102v.582c-.068 0-.102.068-.17.103-.102-.343 0-.583-.068-.788l-.34-.137v.685h-.135c-.068-.206 0-.617-.068-.754a1.041 1.041 0 0 0-.408-.171v.617h-.102c-.068-.172 0-.549-.136-.754l-.34-.103h-.067c.068.103.068.548.136.617h-.17c-.136-.206-.102-.48-.17-.685l-.34-.137h-.068c0 .171 0 .41.068.513h-.136c0-.137 0-.48-.068-.582-.102-.137-.34-.205-.34-.205h-.067v.41l-.102-.102s0-.411-.17-.48l-.408-.102s-.203 0-.203.137c0 .205.237.513.917.685.102.171.441.342.611.342.102.137.476.343.612.343.067.137.407.342.577.342.068.103.34.274.577.343l.204.103c-.204.205-.407.41-.475.616-.102.206-.238.514-.442.685-.068.069-.951.685-1.189 1.13-.237.24-.407.514-.407.891s.102.685.407.617c0 .137.068.342.238.342l.34-.103h.543c.204 0 .408-.17.51-.41.679.136 1.256-.103 1.46-.788.34 0 .544-.069.781-.137.238.342.238 1.198-.135 1.644l-.34-.103v-.274l-.136-.103-1.019.206-.068.137v.205c-.238.103-.51.24-.747.411l-.136-.171h-.136l-.51.411c-2.717-.274-3.192-.788-4.585-.788-.577 0-1.019.172-1.358.446a.665.665 0 0 0 .101-.343c0-.24 0-.514-.135-.788.068-.068.203-.103.34-.103.679 0 1.256.685 2.649.685.78 0 1.766-.582 1.766-1.712 0-1.165-.917-1.781-1.8-1.781-.85 0-1.359.342-2.174.342-.578 0-.747-.342-.68-.89l.34-.172c.68 0 .34.754.476.754.136 0 .271-.274.271-.48 0-.342-.237-.513-.679-.513-.577 0-1.359.48-1.359 1.541 0 .754.578 1.199 1.461 1.199.68 0 1.698-.274 2.208-.274.34 0 .68.24.68.445 0 .137-.239.274-.51.274-.816 0-1.359-.41-2.31-.41-.476 0-.747.205-.951.41a12.662 12.662 0 0 0-1.02-1.576c-.169-.137-.61-.41-1.12-.41-.68 0-1.019.445-1.257 1.13-.441-.343-.95-.548-1.494-.754.34-1.027 1.155-1.027 1.155-1.85v-.17h.101c.17 0 .34-.138.34-.275s-.17-.342-.34-.342c-.135 0-.271.137-.271.342l-.408-.342a.233.233 0 0 0 .238-.24.342.342 0 0 0-.34-.343c-.204 0-.271.172-.271.343 0 .103 0 .171.101.205h-.17c-.135 0-.271 0-.441.069.068-.069.068-.137.068-.206 0-.17-.102-.342-.272-.342-.17 0-.34.137-.34.342 0 .103.069.206.17.275-.17 0-.34.102-.611.137.068 0 .102-.137.102-.206 0-.171-.136-.343-.272-.343-.17 0-.34.172-.34.343 0 .137.136.24.272.274l-.611.137a.782.782 0 0 0 .204-.548c0-.343-.238-.685-.544-.754v-.48c.34 0 .51.138.68.275l.101-.069v-.822l-.101-.068c-.136.137-.34.205-.578.24 0-.343.136-.548.238-.754l-.102-.137c-.17.069-.34.069-.442.069-.101 0-.271 0-.441-.069l-.102.137c.136.206.204.445.272.685a.882.882 0 0 1-.612-.205l-.068.068v.822l.068.069c.17-.137.34-.24.68-.274v.48c-.34.102-.544.342-.544.753 0 .205.102.41.238.548-.204 0-.408-.069-.611-.137.135 0 .237-.137.237-.274 0-.172-.17-.343-.34-.343-.135 0-.271.171-.271.343 0 .068 0 .171.102.205-.238 0-.476-.102-.68-.137.068-.068.136-.171.136-.274 0-.205-.102-.342-.271-.342a.342.342 0 0 0-.34.342c0 .069 0 .137.102.206h-.612l.068-.24c0-.171-.135-.343-.271-.343s-.34.172-.34.343c0 .137.136.24.272.274a.71.71 0 0 0-.34.274c0-.137-.17-.24-.34-.24a.27.27 0 0 0-.271.274c0 .137.136.343.271.343h.136v.137c0 .788.748.753 1.19 1.85a5.321 5.321 0 0 0-1.53.753c-.101-.685-.509-1.096-1.29-1.096-.544 0-.917.274-1.02.411-.339.343-.78.96-1.154 1.61-.17-.206-.442-.411-.951-.411-.883 0-1.46.41-2.31.41-.237 0-.441-.136-.441-.273 0-.206.271-.48.611-.48.578 0 1.597.274 2.174.274.883 0 1.427-.445 1.427-1.199 0-1.096-.748-1.575-1.36-1.575-.339 0-.678.205-.678.514 0 .205.17.445.34.445s-.239-.685.407-.685c.17 0 .34 0 .441.137 0 .548-.17.89-.747.89-.815 0-1.29-.342-2.208-.342-.883 0-1.8.616-1.8 1.713 0 1.198 1.02 1.712 1.766 1.712 1.359 0 2.038-.616 2.616-.616.136 0 .238 0 .34.102-.102.274-.17.548-.17.754 0 .24.17.514.441.685-.238.103-.407.206-.543.343-1.46.41-4.076-1.713-5.435-1.85a.736.736 0 0 0 .17-.445c0-.754-.883-.788-.951-1.2 0-.136.068-.239.238-.239.203 0 .271.24.068.48.34-.103.577-.343.577-.686 0-.685-.68-1.027-1.427-.548.068-.102.136-.342.34-.342-.238-.343-.68-.343-1.019 0 0-.206 0-.411.068-.48 0-.068 0-.17-.102-.137-.34.172-.577.343-.849.788v-.103a3.08 3.08 0 0 1 .408-.616c.068-.069.068-.103 0-.137 0-.069-.136-.137-.204-.24l.136.103c.102 0 .203-.103.203-.24s-.101-.24-.203-.24c-.136 0-.204.103-.204.206 0 .068 0 .103.068.137l-.34-.24c.102 0 .17-.103.17-.205 0-.137-.102-.24-.204-.24s-.204.103-.204.24c-.102 0-.203-.069-.34-.137.069 0 .137-.103.137-.172 0-.137-.102-.24-.204-.24s-.204.138-.204.275v.068a.651.651 0 0 0-.34-.103v-.48l.34.103v-.48h-.34v-.342h-.441l.068.343h-.442v.48l.476-.103v.48c-.17 0-.34 0-.442.102v-.068c0-.137-.068-.24-.204-.24-.102 0-.204.137-.204.274 0 .068.102.137.136.171-.068 0-.17.103-.271.171 0-.171-.068-.274-.17-.274-.102 0-.17.103-.17.24 0 .103 0 .171.102.206l-.204.205v-.137c0-.103-.102-.24-.204-.24s-.17.069-.17.206c0 .137.102.24.204.24l-.17.17.068.138c0 .068.34.41.51.685 0 0 0 .103-.068.137-.34-.514-.611-.685-.85-.89-.067 0-.17.068-.135.136l.068.48c-.34-.343-.781-.514-1.02-.103.103 0 .239.24.273.343-.578-.343-1.461 0-1.461.685 0 .342.136.582.442.685-.136-.343 0-.548.237-.548.17 0 .238.068.272.205-.136.343-1.019.24-1.019 1.2 0 .273.17.616.51.753 0-.103 0-.24.135-.343v.137l-.101.685c0 .137 0 .343.237.48 0-.103.068-.343.204-.343-.136.274-.136 1.37.34 1.473 0-.24.17-.514.34-.48-.136.07 0 .549 0 .823-.68.89-2.039 1.199-3.261 1.301-.917.069-1.8.343-1.8 1.13 0 .206.17.343.34.514-1.7 0-3.533-.205-5.435-.48.679.617 2.038 1.371 2.581 1.714-.68.342-2.208.787-3.057 1.027 3.397.48 8.322.788 10.733.137l-.611-.068h.102c.34 0 .815 0 .815-.343v-.48c1.97.343 5.197 1.097 7.133 1.097.34 0 .747 0 1.29-.103h.17c.544 0 1.02 0 1.02-.274v-.445h-.204c1.29.068 2.955.48 3.974.48.237 0 .441 0 .611-.07l.51.48c.34.343.679.411 1.019.411.509 0 .95-.41.95-.925 0-.068 0-.17-.067-.274 1.222 1.028 2.819 1.713 4.347 1.713 1.563 0 3.193-.685 4.416-1.713l-.068.24c0 .582.408.96 1.019.96.238 0 .611-.104 1.019-.412l.476-.514.577.069c1.019 0 2.65-.411 3.906-.48h-.136v.48c0 .137.136.24.34.274.883.171 1.63.24 2.106.24.441 0 1.019-.069 1.596-.137.17.068.34.068.578.068l1.188-.103h1.19c.44 0 1.018-.068 1.256-.685l4.178-.548v.48c0 .205.204.274.441.342 2.31.548 4.416.24 7.609-.274l-.17.069zm-1.495-2.26c-.679.444-1.63.958-2.241 1.232.577.343 1.766.754 2.31.925-3.058.411-3.635.411-5.163.24.475-.103 1.018-.343 1.018-.685l-.101-1.233v-.172c1.868.137 2.717-.17 4.143-.342l.034.034zm-8.491-1.234c.407 0 .543.24.577.514l-3.125.445c.238-.205.476-.342.68-.582.577-.24 1.358-.445 1.868-.445v.068zm.68-3.083c0 .514-1.156 1.028-1.02 1.542-.407-.274-.204-1.028-.68-1.028 0 0-.101 0-.135.069 0-.069 0-.103-.068-.172l.136-.513c.611-.137.272.753.815 1.027v-.068c-.204-.343.34-.583.578-.96.203-.136.34 0 .34 0l.033.103zm-.476-.616c0 .685-.544.685-.612 1.164 0-.513-.17-.925-.34-.925-.101 0-.17 0-.339.103.102-.205.102-.445.136-.685.475-.445.34 1.028 1.019.754v-.069c-.51 0-.272-1.027-.747-1.027-.102 0-.204.068-.272.17v-.102c0-.274 0-.548-.102-.788.272-.274.34.617.917.685.102.24.34.343.34.754v-.034zm.203-1.918c.136 0 .204.068.204.205 0 .343-.441.685-.475 1.028-.068-.137-.136-.206-.136-.343 0-.274 0-.514.102-.685.102-.103.204-.205.34-.205h-.035zm-.237-.686c0 .275-.408.857-.408 1.37v.172c-.34-.103-.272-.685-.577-.685-.102 0-.204.068-.238.205l-.272-.685.136-.102c.238 0 .34.48.68.48.101 0 .237 0 .407-.104-.17-.102-.238-.41-.238-.582l.102-.343c.238 0 .408 0 .408.343v-.069zm-.612.343c-.34 0-.407-.343-.679-.343-.102 0-.204.069-.238.24a3.774 3.774 0 0 0-.68-.959c.273-.41.34.48 1.02.48.136 0 .34 0 .475-.069v.206c0 .102 0 .274.102.445zm-.237-1.815c.237 0 .34.205.34.513 0 .24-.103.343-.17.548-.34-.137-.408-.48-.476-.822.102-.137.204-.24.34-.24h-.034zm-.272 1.027c-.578.206-.747-1.096-1.223-.41-.272-.275-.577-.48-.917-.686.34-.548.577.582 1.766.171 0 .343 0 .754.34.89l.034.035zm-.781-1.85c.34 0 .34.343.407.823-.34 0-.51-.343-.68-.685 0-.069.137-.137.239-.137h.034zm-1.359-.513c.815 0 .883 1.096 1.359 1.301-.544.069-1.19-1.13-1.699-.17l.136.102c-.102 0-.204-.103-.34-.137.17-.411.34-.582.85-.514v-.068c-.476-.343-1.087-.103-1.087.445-.17 0-.34-.103-.476-.137.238-.343.544-.822 1.189-.822h.068zm-1.087 3.083c0 .616-.611 1.027-1.087 1.027-.34 0-.68-.103-.95-.274l-.069.069.17.137c-.102.205-.408.342-.611.342.34.069.611 0 .815-.24l.34.103c-.068.445-.68.685-1.155.685v-.103h-.102c-.102.274-.272.446-.544.446l-.543-.069-.204.103c-.068 0-.102 0-.102-.137.136-.069.51-.514.68-.514h.203l.068-.103c0-.068-.136-.102-.204-.102-.271 0-.747.445-.849.445 0 0-.17 0-.204-.171v-.48c.068-.103.136-.24.272-.342.068-.343.917-.925 1.155-1.165.238-.206.272-.343.475-.754.136-.342.68-.753 1.02-.924 0 .205.135.274.237.342h.068a.953.953 0 0 1-.17-.548v-.103h.068s0-.068-.068-.068v-.137l-.102-.274.136-.069c.34 0 .68.754.68.925l-.068.582c0 .069.068.137.203.172l.17-.069c-.102 0-.17-.137-.17-.205 0-.069.136-.274.136-.411 0-.069 0-.103-.068-.172 1.699.411 3.193 2.056 3.193 3.837 0 .548 0 .959-.204 1.575-.135 0-.237 0-.34.069V20.7l.34.069v-.411h-.271l.102-.274h-.34v.342l-.272-.068v.41l.34-.102-.102.343c-.272.068-.543.068-.747 0v-.343l.271.103v-.411h-.203v-.343h-.272v.343l-.272-.069-.068.343h.34l-.068.41c-.272-.068-.51-.102-.68-.205v-.342l.272.103.068-.343h-.271l.102-.343-.34-.068v.342l-.272-.068c.272-.514.17-1.199-.17-1.473.34-.205.442-.514.442-1.027 0-.343-.238-.686-.34-.891l-.068.103c.068.102.17.48.17.822l.034-.034zm-.068 2.534v.343l.238-.069-.068.343-.34-.274c.068-.103.17-.206.204-.343h-.034zm-1.019 0l.068.343-.815.171-.068-.342.815-.206v.034zm-.917.514v.103l.068.103 1.019-.206.068-.137v-.068l.17.068c-.34.617-1.02.788-1.699.788h-.34v-.274c.205-.137.442-.274.68-.343l.034-.034zm-.883.514l-.611.514-.272-.274.611-.583.272.343zM114 20.7c1.121 0 2.174.446 4.28.685v.069l.102.137c-.204.205-.408.41-.578.685l-.17-.137h-.135l-.544.925v.137l.204.137c-.204.342-.34.788-.272 1.164h-.679c.204-.685-.068-1.85-1.359-1.952-.068 0-.135.068-.17.137 1.02.274 1.36 1.199 1.19 1.815-1.563.103-2.99.514-3.737.583 0-.069-.068-.103-.136-.137.544 0 1.19-.172 1.19-1.61 0-.48-.103-1.37-.137-1.507 0-.24-.17-.411-.34-.548.272-.343.782-.548 1.36-.548L114 20.7zm3.193 2.398l.476-.685.34.137-.442.685-.34-.171-.034.034zm-5.502 1.541l-.34-.102c-.17-.103-.34-.24-.34-.411 0-.172.34-.274.544-.274.203 0 .441.205.543.41l.102-.17v-.07l.068.07v-.48c.272.171.408.41.408.582 0 .206-.34.48-.748.48h-.237v-.035zm-.578-1.13c.442-.171.781-.137 1.02 0v.445a.765.765 0 0 0-.544-.274c-.204 0-.34 0-.51.103v-.274h.034zm0-.205c.068-.206.068-.412.068-.617 0-.411 0-.788-.102-1.199.204-.103.408-.137.68-.137.61 0 .883.274 1.018.685 0 0 .102.788.102 1.233 0 .172 0 .343-.068.548-.17-.48-.883-.822-1.698-.48v-.033zm.781-2.295h-.441c-.34 0-.442-.172-.442-.343 0-.103.136-.24.34-.24.272 0 .34 0 .51.172l.101-.103-.237-.583c.407.069.679.343.679.549 0 .342-.238.513-.51.582v-.034zm-.34-1.097l.204.343c-.441-.137-.917.069-.95.445 0-.137-.102-.24-.136-.342.17-.24.441-.446.815-.446h.068zm-.44 1.2l-.103.102c0-.068 0-.171-.068-.24 0 .069.136.103.204.137h-.034zm-.205 3.288c0 .068.068.102.136.137-.068 0-.136 0-.204.068l.068-.205zm4.518-6.44c-.747 0-1.46.343-2.208.343-.68 0-1.087-.274-1.087-1.028v-.411c.068.788.476 1.028 1.359 1.028.68 0 1.528-.274 2.038-.274.51 0 .78.41.679.787-.204-.24-.475-.41-.781-.41v-.035zm-2.14.788c.747 0 1.528.342 2.31.342.475 0 .815-.274.815-.787 0-.514-.34-.891-.917-.891-.612 0-1.359.411-2.038.411-.85 0-1.121-.343-1.223-1.13l.17-.274c0 .685.34.924.883.924 1.087 0 1.223-.342 2.208-.342.883 0 1.494.514 1.494 1.507 0 1.13-1.019 1.439-1.46 1.439-1.19 0-2.038-.617-2.582-.617-.17 0-.34.069-.34.137l-.17-.274c.137-.274.34-.445.816-.445h.034zm-4.178-.548c.068-.514.442-.96 1.02-.96.44 0 .678.138.916.343.442.446 1.155 1.644 1.359 2.398-.238-.206-.408-.343-.815-.343-.34 0-.68.206-.951.48-.34-.754-.951-1.473-1.699-2.055l.204.137h-.034zm-2.48-1.13c0-.069 0-.138.069-.24l.441.205v.171l-.543-.137h.034zm-3.6 0c0-.103 0-.206-.068-.343.17 0 .34 0 .544-.103l.102.343c-.204 0-.34 0-.544.068l-.034.034zm.781-.138c0-.102 0-.24-.102-.342l.952-.103v.343l-.85.102zm1.02-.445c.339 0 .679 0 1.018.103-.102.103-.136.24-.17.342h-.815v-.445h-.034zm1.188.137l.51.137c0 .137-.068.24-.102.343l-.51-.103.102-.343v-.034zm-1.834-2.055c0-.343.272-.548.543-.514.34 0 .51.24.51.514s-.204.548-.51.548a.539.539 0 0 1-.543-.548zm-2.887.925c0-.274.17-.514.543-.514.748 0 1.63.445 2.887.445 1.257 0 2.174-.48 2.888-.48.407 0 .611.206.611.48 0 .411-.68.788-.917 1.37-.17-.137-.34-.205-.611-.274.17-.445.679-.685.679-.89 0-.069 0-.137-.102-.137l-1.359.274c-.136 0-.136.171 0 .171l1.02-.137c-.17.137-.442.411-.476.617h.136c-.578-.103-1.257-.206-1.8-.206-.544 0-1.257.137-1.835.274l.204-.068c-.068-.206-.34-.48-.475-.617l1.018.103c.102 0 .102-.206 0-.206l-1.358-.274s-.136 0-.136.137c0 .24.543.446.68.925l-.612.206c-.272-.583-.917-.925-.917-1.37l-.068.17zm1.019 1.541a.772.772 0 0 1 .407-.205l.068.24-.475.17v-.205zm-3.94.617c.238-.24.475-.343.883-.343.611 0 1.019.411 1.019.925l.238-.137a6.152 6.152 0 0 0-1.97 2.74c0-.41-.51-.685-.917-.48l.17-.342c.407 0 .679.206.849.411l.101-.205a1.124 1.124 0 0 0-.95-.548c-.408 0-.68.137-.85.41.204-.787.951-1.986 1.359-2.397l.068-.034zm0 6.165c-.17-.068-.34-.137-.612-.137-.203 0-.34.103-.51.24v-.411c.273-.103.68-.137 1.02.069.068.102.068.205.102.342v-.103zm-1.257.343l.102.137c.102-.206.34-.411.543-.411.272 0 .544.103.544.24 0 .342-.408.548-.917.548-.442 0-.68-.343-.68-.514 0-.206.136-.48.442-.685l-.068.103v.582h.034zm1.359.171l.102.343-.272-.103.17-.24zm-.068-3.083c-.068 0-.102 0-.17-.068.136 0 .204-.103.272-.171l-.102.342v-.103zm-1.189-4.35l.068.411c0 .754-.34 1.028-1.087 1.028-.747 0-1.495-.343-2.208-.343-.34 0-.577.172-.747.446-.136-.343.102-.754.68-.754.475 0 1.358.343 2.037.343.85 0 1.223-.343 1.257-1.097v-.034zm-.747 2.466c-.578 0-1.359.617-2.616.617-.407 0-1.426-.343-1.426-1.439 0-1.027.611-1.541 1.46-1.541 1.02 0 1.155.342 2.208.342.544 0 .85-.342.951-.959l.136.24c-.102.822-.34 1.096-1.223 1.096-.68 0-1.426-.342-1.97-.342-.577 0-.917.342-.917.89 0 .514.34.822.85.822.78 0 1.562-.342 2.309-.342.441 0 .68.171.85.342l-.137.343c-.136-.069-.238-.137-.407-.137l-.068.068zm.51 1.13c0-.239.27-.479.679-.513l-.204.514h-.068l.136.171c.136-.137.203-.171.441-.171s.34.103.34.24c0 .205-.102.342-.442.342h-.407a.532.532 0 0 1-.51-.548l.034-.034zm.61.891c.34 0 .51 0 .782.206a6.426 6.426 0 0 0-.136 1.164v.583c-.747-.343-1.46-.103-1.698.514l-.068-.548c0-.446.136-1.2.136-1.268.101-.342.34-.685 1.019-.685l-.034.034zm-1.154.446c-.068.17-.238 1.027-.238 1.438 0 1.37.68 1.644 1.189 1.713 0 0-.068 0-.102.068-.68-.068-2.038-.445-3.465-.548-.271-.685-.068-1.541.85-1.884l-.068-.17c-1.291.342-1.529 1.198-1.155 2.054h-.51c-.611 0-1.155.103-1.528.343.238-.754 0-1.37-.578-1.61l-.102.24c.442.342.51 1.027.34 1.712-.102.069-.136.137-.136.24-.883.069-2.106-.137-3.396-.342.271-.343.17-.685 0-.925-.068 0-.136.068-.204.137.136.24.238.48 0 .753l-.781-.205c-.068-.137-.102-.343 0-.48h-.136c-.136.069-.238.24-.17.411h-.272c-.102-.205-.068-.342-.068-.548h-.102c-.102 0-.203.24-.136.411H85.504c-.17-.17-.068-.48 0-.513h-.17c-.136 0-.238.24-.204.342 0 0 0 .069-.102.069h-.102a.791.791 0 0 1-.136-.48c0-.445 1.02-.48 1.8-.342.34 0 .68.068.952.102l.271.172c.204-.137.578-.685.476-1.165.238 0 .407.48.238.788.51-.069.815-.411.747-1.028.068.24.34.343.577.343-.136-.137-.136-.343-.136-.548 0-.206.136-.583 0-.89.102 0 .34.342.238.581.68-.17.578-1.233.442-1.472.204 0 .34.137.34.342.203-.137.237-.445.237-.548 0-.137-.068-.24-.102-.343 1.291-.342 3.872 2.056 5.57 1.816v-.034zm-10.598-.206c-.204-.103-.34-.274-.34-.48 0-.445.442-1.027.34-1.507-.068-.068-.102 0-.136 0 0 .343-.203.583-.34.96-.067-.172-.203-.343-.271-.343-.34-.411-.611-.96-.611-1.541 0-.583.34-1.37 1.019-1.508.102 0 .068-.17 0-.17s-.136 0-.17.068l.068-.343c0 .137.34.411.441.48 0 0 .102 0 .136-.069-.102 0-.204-.171-.34-.342.272-.069.68-.137 1.02-.137.34 0 .679 0 1.018.137l-.34.342h.137c.136 0 .34-.274.441-.41 0 .102.102.239.136.342h-.136c-.068 0-.102.137 0 .171.544.103 1.02.788 1.02 1.473s-.34 1.096-.68 1.473l-.204.445c-.136-.342-.34-.685-.34-1.028h-.135c-.136.548.34 1.028.34 1.508 0 .205-.17.342-.34.48-.136-.138-.408-.104-.68-.343l-.068-.206c0-.274.238-.342.476-.548 0 0 0-.137-.068-.103-.204.103-.408.069-.544.274-.203-.205-.34-.171-.577-.274 0 0-.068 0-.068.069.238.274.51.274.51.548v.24c-.238.17-.51.17-.68.342h-.034zm1.936-4.864a3.178 3.178 0 0 0-1.019-.171c-.441 0-.78 0-1.087.171v-.068a3.608 3.608 0 0 1 1.087-.206c.34 0 .782.103 1.087.206v.068h-.068zm-.068 6.645c-.203-.24-.203-.616-.611-.753.51-.103.68-.343.68-.617v-.103l.339-.342a.556.556 0 0 0-.136.342c0 .548.17 1.028-.272 1.473zm-1.053-1.952c.272.342.748.137.748.48 0 .342-.442.445-.748.445-.34 0-.747-.137-.747-.446 0-.342.51-.102.781-.48h-.034zm-.17 1.164h.238c.238.206.34.514.51.788-.238 0-.476 0-.68-.068-.17 0-.34 0-.509-.069l.51-.685h-.068v.034zm4.348-5.035c-.17-.205-.407-.24-.577 0 0-.24-.068-.48-.272-.548.408-.171.85 0 .85.583v-.035zm-1.189-1.027a.512.512 0 0 0 0 .445c-.203 0-.34.103-.475.205l-.102-.342c.204-.206.442-.343.611-.274l-.034-.034zm-.849-.069c0 .343.136.754.238.89 0 .103-.102.172-.136.275l.068.068c.204-.274.34-.48.68-.48.237 0 .34.138.34.412 0 .342-.476.753-.68.753v.103c.34-.068.68-.24.815-.445.272.616.747.48.747 1.027 0 .137 0 .411-.136.514-.441-.24-.679-.753-.679-1.13h-.068c-.204.685.612 1.13.408 1.815-.17-.24-.815.103-1.02-1.37h-.101c-.272 1.096 1.087 1.439.68 2.638 0-.343-.34-.514-.68-.411-.612-.583-.204-1.028-.204-1.37v-.07c-.068.138-.34.48-.34.686 0 .925 1.02.685.612 1.987-.068-.103-.136-.172-.204-.172l-.204.069c-.441 0 0-1.028-.51-1.473 0 .069.137.24.137.343v.48c0 .855.679.958.203 1.438 0-.343-.237-.548-.441-.685-.272-.069-.272-.685-.17-1.028v-.205c.068-.343.17-.583.34-.788.441-.446.815-.96.815-1.61 0-.788-.442-1.37-1.02-1.542v-.137c.205-.274.408-.41.578-.513l-.068-.069zm-3.736-.616c.476-.48 1.189-.788 1.596-.788.408 0 1.087.342 1.597.788v.068l-.204.411s0-.068-.068 0l-.102.171c-.271-.137-.849-.274-1.189-.274-.34 0-.95.103-1.222.24 0-.068-.102-.137-.102-.171v.068l-.272-.513v-.103l-.034.103zm-2.717 1.575c0-.582.68-.685 1.019-.48h.238c0-.17 0-.342-.102-.41.17-.069.51 0 .679.17 0 .172 0 .343-.102.446a.868.868 0 0 0-.611-.24c-.34 0-.476.24-.476.48-.17-.171-.407-.137-.68 0l.035.034zm.917 4.008c-.34-1.268.95-1.542.68-2.603h-.103c0 1.027-.849 1.027-1.019 1.301-.17-.685.612-1.13.442-1.78 0 .342-.238.787-.747 1.027-.102-.172-.204-.343-.204-.446 0-.685.51-.342.781-1.027.136.274.408.48.883.548v-.103c-.204 0-.68-.411-.68-.753 0-.275.103-.412.34-.412.34 0 .476.206.68.48l.068-.068c0-.103-.102-.172-.136-.24.102-.103.17-.446.17-.822.237.068.51.205.679.582-.577.24-1.019.925-1.019 1.61 0 .616.408 1.199.815 1.644.204.24.34.548.408.89 0 .275.102.446.34.617v.171c0 .24.17.48.679.583-.442.068-.442.342-.578.685h-.271c-.34-.48-.136-.857-.136-1.37l-.136-.583c.068.343.102 1.028-.238 1.028-.272 0-.51.205-.543.548-.34-.445.34-.582.34-1.37l-.069-.411.136-.343c-.577.343-.102 1.37-.543 1.37h-.204c-.068 0-.17.069-.204.172-.407-1.268.612-1.096.612-1.953 0-.274-.238-.616-.272-.753h-.068c0 .41.408.753-.136 1.37-.34 0-.68.103-.68.445l-.067-.034zm-4.28 3.254c0-.617.544-.822 1.359-.89 1.358-.138 2.31-.343 3.227-1.131l-.204.342c.34 0 .577-.342.68-.685-.103.685.169 1.028.678 1.028-.17-.343-.101-.754.102-.856 0 .342.204.582.34.753-.51.069-.917.274-.917.685 0 .137 0 .24.102.343a5.772 5.772 0 0 0-1.223-.137c-.781 0-1.63.274-1.63.685v.274h-.476c-.17-.069-.34-.343-.272-.548h-.136c-.101.137-.135.445 0 .548-.067 0-.101 0-.135.068h-.102c-.17-.137-.272-.41-.272-.582h-.17c-.068.137-.102.411 0 .548h-.17c-.203-.137-.203-.48-.17-.548h-.135a.545.545 0 0 0 0 .514h-.272c-.102-.137-.204-.274-.204-.514v.103zm-4.551 2.569c.543-.137 1.698-.514 2.31-.856-.612-.343-1.563-.788-2.208-1.268 1.358.206 5.027.48 7.03.274v.171l-.135 1.234c0 .445.747.685 1.256.753-1.8.171-4.993.24-8.253-.24v-.068zm9.238-.103c-.203.069-.34.069-.577.069a2.177 2.177 0 0 1-1.359-.48c.17-.103.816-.205 1.02-.205.237 0 .543 0 .916.102v.514zm7.133.343c-2.48 0-6.385-1.2-8.016-1.2-.51 0-.815.07-1.087.138.102-.274.136-1.37.068-1.542.272-.342.85-.41 1.359-.41 1.698 0 5.435 1.198 7.812 1.232v1.44c0 .136.068.239.272.342h-.476.068zm2.378-.069c-.68 0-1.359 0-1.868-.205.34-.137 1.019-.343 1.698-.343h.204v.514l-.034.034zm4.076-.274c-1.02 0-3.057-.514-4.314-.514-.611 0-1.426.206-1.766.343.102-.343.102-1.37.068-1.644.238-.343.781-.617 1.698-.617 1.699 0 3.397.48 4.178.582l-.068.446c0 .342.34.89.68 1.37h-.442l-.034.034zm1.12.24c-.543-.48-1.018-1.267-1.018-1.644 0-.548.34-1.028.815-1.028.136 0 .34.137.476.171.17.446.407.822.679 1.165h-.102c-.68 0-1.019.788-.883 1.37l.034-.034zm1.02.582c-.476 0-.747-.342-.747-.616 0-.172 0-.343.067-.514l.442.582v-.068l.204.102c0-.342.102-.548.407-.548.136 0 .34.069.34.343 0 .342-.204.685-.68.685l-.033.034zm.407-1.267c-.34 0-.543.205-.611.41l-.408-.513c.136-.205.34-.342.578-.342h.102l.407.445h-.102.034zm4.858 1.815c-2.548 0-6.216-2.26-6.216-5.823 0-2.74 2.038-5.617 6.216-5.617 4.177 0 6.215 2.877 6.215 5.583 0 3.597-3.634 5.823-6.215 5.823v.034zm5.23-2.26h.136a.57.57 0 0 1 .544.342l-.34.445a.745.745 0 0 0-.611-.342h-.136l.407-.445zm.102 1.712c-.441 0-.68-.342-.68-.685 0-.205.205-.342.34-.342.272 0 .408.17.34.513l.238-.068.476-.617.101.617c0 .24-.271.616-.78.616l-.035-.034zm1.02-.548c.101-.582-.17-1.37-.85-1.37h-.136c.272-.343.51-.685.68-1.096.101-.069.34-.137.509-.137.51 0 .815.41.815.959 0 .343-.475 1.165-1.019 1.644zm.679-.274c.34-.48.61-1.027.61-1.37 0-.171 0-.343-.067-.48.747-.102 2.513-.582 4.178-.582.95 0 1.494.343 1.698.617 0 .24 0 1.37.102 1.644-.34-.103-1.189-.343-1.8-.343-1.29 0-3.26.583-4.348.583h-.441l.068-.069zm7.404-.274c-.407-.445-.68-.959-.543-1.267h-.136v-.069c.102 0 .204.103.34.103l1.358.685c-.34.069-.815.343-1.019.685V26.9zm-2.92.069h.203c.611 0 1.359.17 1.698.274-.51.17-1.223.24-1.936.205v-.514l.034.035zm2.377.685h-.68c.34-.103.578-.24.578-.446v-.616c.136.445.441.753.815.959h-.68l-.033.103zm4.313-.103l-1.256-.103-1.155.206c-.442 0-.883-.24-1.257-.583.238-.274.85-.616 1.29-.685l.612.343.68.103c.101 0 .101-.172.067-.206l-.679-.24c-.475-.171-1.766-.89-2.378-1.027-.407-.137-.61-.446-.61-.857 0-.445.339-.753.44-.89 0 0-.101-.103-.203-.069-.272.206-.578.514-.578.96v.273l-.679-.24c0-.342.068-.684.238-1.095l.102.068h.136l.543-.925v-.137l-.136-.103.51-.582.136.103h.135l.51-.411.577.068c.782 0 1.529-.17 1.868-.822.68.617 1.903.89 3.057.514.136 1.541-.135 2.398-1.596 3.528l-.408.103c.204-.343.34-.89.408-1.096l-.747 1.027c-.34-.24-.747-.445-1.087-.616l.204-.343s0-.102-.136-.068c-.102 0-.34.24-.34.342-.102 0-.136.172 0 .24.883.514 2.65 1.37 2.616 2.295 0 .411-.238.856-.884.856v.069zm.068-2.398c2.378-.48 5.3-.89 6.114-.89.883 0 1.155.137 1.359.342 0 .137 0 1.439.102 1.713-.34-.069-.68-.137-1.121-.137-.68 0-3.295.342-5.23.685v-.171c0-.514-.578-1.028-1.292-1.508l.068-.034zm6.454 1.37c.577 0 1.155.103 1.155.172 0 .102-.68.48-1.359.48l-.68-.07v-.547l.952-.069-.068.034zM84.62 24.88l-.612-.068c.17.068.204.102.204.205v.925c0 .103-.068.137-.204.103v.103l.68.068c.407.069.679-.171.679-.548 0-.411-.272-.754-.781-.822l.034.034zm0 1.268c-.136-.069-.17-.103-.17-.206v-.925c0-.103 0-.137.17-.103.203 0 .34.274.34.685 0 .412-.137.549-.34.514v.035zm1.086-1.097l.68.137v.069c-.102 0-.17 0-.17.103v.925c0 .102 0 .137.204.17l-.68-.068v-.068c.102 0 .17 0 .17-.103v-.96c0-.102 0-.136-.204-.17v-.069.034zm2.242 1.302h.068v.582c-.407-.102-.917-.205-1.257-.342.136 0 .204 0 .204-.137v-1.028c0-.068-.068-.103-.204-.137v-.068l1.155.24v.548-.069c-.102-.24-.272-.411-.51-.48-.135 0-.17 0-.17.103v.411c.205 0 .273 0 .34-.171v.548c-.101-.205-.17-.274-.34-.342v.513c0 .137 0 .172.17.206.272.068.442-.103.476-.343l.068-.034zm1.257-.617l.51.069c-.136 0-.17.069-.17.171v.685c0 .343-.204.446-.51.343-.238 0-.51-.103-.51-.411v-.685c0-.103 0-.137-.203-.172v-.068l.68.137v.069c-.17-.069-.205 0-.205 0v.89c0 .206.17.274.272.274.204.069.34 0 .34-.274v-.753c0-.069-.068-.103-.238-.137v-.069l.034-.069zm5.299.206h.136v.514l-1.257-.171v-.069c.136 0 .204 0 .204-.103v-.925c0-.102 0-.137-.204-.137v-.102c.272-.103.849-.069 1.223 0v.513h-.102c-.068-.274-.238-.445-.476-.445-.136 0-.17 0-.17.069v.41c.238 0 .34 0 .34-.205h.068v.583h-.068c-.068-.206-.136-.24-.34-.275v.446c0 .103.068.137.204.137.272 0 .442-.137.51-.343l-.068.103zm.34-.856c.339 0 1.018.102 1.29.17v.515h-.102c0-.24-.136-.446-.34-.48v1.028c0 .137 0 .171.17.205v.069l-.78-.137v-.069c.169 0 .237 0 .237-.102v-1.028c-.238-.069-.34.068-.408.342h-.102v-.548l.034.035zm18.817.102l.577-.102v.068c-.102 0-.17.069-.17.171v.96c0 .102 0 .137.204.102v.069l-.68.103v-.069c.17 0 .204 0 .204-.137v-1.028l-.34 1.37h-.169l-.34-1.164v.96c0 .136.102.17.204.17v.069l-.51.068v-.137c.136 0 .238-.068.238-.24v-.924c0-.103-.068-.103-.17-.103v-.069l.544-.102.272.89.271-.925h-.135zm1.426-.274c-.34 0-.68.411-.68.822 0 .343.34.617.68.549.34 0 .68-.446.68-.788 0-.343-.34-.685-.68-.617v.034zm0 1.37c-.238 0-.34-.24-.34-.582 0-.41.102-.685.34-.685.238 0 .34.171.34.582 0 .412-.102.617-.34.686zm1.359-.24v.07h-.578v-.07c.136 0 .204 0 .204-.136v-.96c0-.102 0-.136-.204-.136v-.069c.102 0 .34 0 .51.069l.68 1.027v-.616c0-.103-.069-.137-.239-.172v-.068c.136 0 .408 0 .51.068v.069c-.136 0-.204 0-.204.137v1.13h-.204l-.679-1.13v.822c0 .103 0 .137.204.137v-.171zm9.17-.582c0-.342-.271-.616-.747-.548l-.577.103v.069c.136-.069.17 0 .17.068v.96c0 .102 0 .136-.17.17v.069l.68-.103c.339-.068.61-.342.61-.788h.035zm-.916.788v-.89c0-.103 0-.137.17-.172.135 0 .271.137.271.548 0 .343-.102.583-.272.617-.135.069-.17 0-.17-.068v-.035zm1.528-.102c-.136 0-.17 0-.17-.103v-.48c.17 0 .204 0 .204.274 0 .206.068.343.272.274.204 0 .271-.171.271-.342h-.067c0 .103 0 .205-.068.205l-.102-.205c0-.103-.068-.24-.34-.24.238-.069.476-.171.476-.445 0-.24-.136-.343-.442-.274h-.543v.102c.101 0 .135 0 .135.103v.925c0 .103 0 .137-.17.171v.069l.578-.103v-.068l-.034.137zm-.17-1.028c0-.137.068-.171.136-.171.136 0 .204.068.204.24 0 .24-.136.342-.34.342v-.445.034zm1.427 1.028c.34-.103.68-.48.68-.857 0-.342-.34-.685-.68-.616-.34 0-.612.342-.612.787 0 .446.272.686.612.686zm0-1.37c.204 0 .34.136.34.547 0 .411-.136.686-.34.686-.204 0-.272-.137-.272-.549 0-.41.068-.616.272-.685zm1.358 1.13h-.61c.101 0 .135-.069.135-.172v-.959c0-.102 0-.137-.136-.137.136 0 .476 0 .68-.068v.068c-.17 0-.204 0-.204.137v.96c0 .102 0 .137.17.137v.068l-.035-.034zm.238-.89h-.068v-.48c.238 0 .815 0 1.155.068v.48h-.102a.615.615 0 0 0-.407-.411V25.7c0 .137 0 .172.203.172v.068h-.61v-.103c.135 0 .169 0 .169-.137v-1.027c-.136 0-.238.102-.34.342zm-7.608-9.18c0 .17 0 .273-.068.342h-.102c-.068-.274-.102-.754 0-.754 0 0 .204.24.204.411h-.034zm-1.29.753c-.103 0-.273.171-.34.274 0 0 0 .068 0 0h.135c0 .103.17.24.34.24.102 0 .238 0 .34-.137 0 .068.102.102.135.137 0 0 .102 0 .102-.069-.271-.342-.577-.41-.679-.41l-.034-.035zm-.17.205l.101-.068-.102.068zm.17-.068c.101 0 .237.068.339.137-.136.068-.34 0-.34-.137zm-1.87 2.295c0 .171-.169.205-.169.342 0 .069-.068.069-.068.069V19.022c0-.069-.136 0-.136-.103l.204-.103c.102 0 .17.103.17.172v.034zm1.122-1.37c-.102.068-.68.685-.815.89h-.17c.204-.342.68-.89.95-.959 0 0 .069 0 0 0l.035.069zm3.6-1.028l.272-.103c1.019.788 1.257 1.816 1.257 2.604-.136-.822-.68-1.85-1.529-2.5zm-37.023 2.5h-.204c0-.102-.068-.17-.102-.24-.17.07-.441 0-.441-.342-.102 0-.204.069-.272.137v-.068c.204-.343.883-.274 1.02.48v.034zm-.34.138c-.34 0-.543-.069-.679-.206v-.103c.136.103.51.24.68.24.067 0 .101.069 0 .069zm2.582-.617s0 .069-.068 0l-.272-.068c0 .342-.238.342-.407.274l-.136.342-.204-.103c.136-.787.85-.856 1.087-.48v.035zm0 .343c-.102.205-.408.274-.68.274-.135 0-.067-.069 0-.069.17 0 .51-.103.612-.24.068 0 .068.069.068.103v-.068zm-4.28-.754c-.17-.103-.34-.274-.34-.342 0-.24.238-.24.476 0 0 .102-.068.24-.136.342zm5.299 0l-.17-.342c.238-.24.51-.24.51 0 0 .068-.17.24-.34.342zm-3.804-2.158s0-.137.068-.171l.135-.103c.068 0 .17 0 .204.069 0 .068 0 .17-.068.205l-.17.103s-.101 0-.135-.069l-.034-.034zm1.902-.205c0-.069.136-.103.204-.069l.17.103c.067 0 .101.137.067.205 0 .103-.136.137-.203.103l-.204-.103c-.068 0-.102-.137-.068-.205l.034-.034zm-.917.24l-.17-.343.17-.24h.34l.17.274-.17.343h-.34v-.035zm-.34 1.712h-.34v-.068l.34-.103c.204 0 .34.137.51.137.17 0 .34-.171.509-.171.102 0 .238.102.272.137l-.34-.069c-.102 0-.272.137-.475.137-.272 0-.408-.103-.544-.103l.068.103zm-.476.274v-.068l.408-.069c.238 0 .34.103.611.103.17 0 .34-.103.612-.103a.8.8 0 0 1 .34.103h-.34l-.612.103c-.271 0-.441-.103-.61-.103h-.34l-.069.034zm23.437.925c-1.257-.582-2.819-.89-4.415-.89a11.94 11.94 0 0 0-4.416.856c-.204.685-.34 2.055-.34 3.185 0 4.316 2.887 5.755 4.756 6.234 1.868-.48 4.755-1.918 4.755-6.234 0-1.13-.136-2.466-.34-3.185v.034zm.102 3.185v.857c-1.019-.24-3.057-.48-4.416-.48v-4.11c1.257 0 3.125.24 4.144.685.17.822.272 2.26.272 3.014v.034zm-8.9 1.028c.952-.171 3.16-.48 4.315-.48v-.17c-1.257 0-3.33.205-4.28.444v-.856c0-.753.102-2.158.238-2.98 1.019-.445 2.819-.685 4.076-.685v9.694c-2.208-.754-3.94-2.192-4.28-4.967h-.068zm4.552 4.967v-5.48c1.19 0 3.465.342 4.314.547-.34 2.74-2.038 4.18-4.28 4.898l-.034.035zm-.543-8.564c0 .274-.17.514-.272.514-.102 0-.34-.137-.34-.205l.102-.069h.17c0-.103 0-.171-.17-.171-.203 0-.407 0-.475.068 0 .069 0 .172-.102.172-.068 0-.408 0-.476.068l-.441.103c-.102 0-.102-.103-.102-.137h.238c.17 0 .441-.103.441-.24 0-.068-.068-.103-.17-.068-.203 0-.509.137-.577.171l-.611.205c-.136 0-.442.172-.544.172-.102 0-.204 0-.204-.069 0-.068.136-.205.204-.205.068 0 .136.102.17.102l.204-.137c0-.102-.442-.137-.442-.342 0-.069.136-.137.204-.137h.136v.103h.068s.136 0 .136-.103-.102 0-.102-.069c0-.17.068-.274.272-.274.203 0 .34 0 .34.172 0 .17.135.17.509.17h1.426c0-.102-.102-.136-.34-.17l-.848.068c-.136 0-.238-.068-.238-.137 0-.103.068-.171.204-.171h.271l.34-.069v.069c0 .103-.102.137-.34.137h-.34c0 .068.103.068.17.068h.918c.271 0 .407.069.407.103 0 .103-.068.171-.17.206.068.068.136.068.238.068v.069l.136-.035zm0 1.2c0 .24-.17.479-.272.479-.102 0-.34-.137-.34-.206l.102-.068h.17c0-.103 0-.171-.17-.171h-.475c0 .102 0 .205-.102.205-.068 0-.408 0-.476.069l-.441.102c-.102 0-.102-.068-.102-.102h.238c.17 0 .441-.103.441-.24 0-.069-.068-.103-.17-.069-.203 0-.509.137-.577.172l-.611.24c-.136 0-.442.17-.544.17-.102 0-.204-.068-.204-.102 0-.069.136-.206.204-.206.068 0 .136.103.17.103l.204-.171c0-.137-.442-.171-.442-.411l.204-.103h.136v.103s0 .068.068.068.136-.068.136-.137h-.102c0-.205.068-.342.272-.342.203 0 .34.068.34.205 0 .172.135.172.509.172h1.426c0-.069-.102-.103-.34-.137l-.848.068c-.136 0-.238-.068-.238-.137 0-.103.068-.171.204-.171h.271c.136 0 .238-.103.34-.103v.068c0 .069-.102.103-.34.103-.17 0-.34 0-.34.069h1.088c.271 0 .407.103.407.137 0 .068-.068.137-.17.171h.238v.103l.136.068zm0 1.198c0 .24-.17.48-.272.48-.102 0-.34-.137-.34-.206h.272v-.068c0-.069 0-.137-.17-.137-.203 0-.407 0-.475.068 0 .069 0 .171-.102.171l-.476.103-.441.103c-.102 0-.102-.103-.102-.137h.238c.17 0 .441-.103.441-.24 0-.068-.068-.068-.17-.068-.203 0-.509.137-.577.17l-.611.24c-.136 0-.442.172-.544.172-.102 0-.204-.069-.204-.103 0-.068.136-.205.204-.205.068 0 .136.137.17.102l.204-.137c0-.17-.442-.205-.442-.445 0-.068.136-.137.204-.137h.136v.137s0 .069.068.069.136-.103.136-.172c0-.068-.102-.068-.102-.102 0-.137.068-.206.272-.24.203 0 .34 0 .34.171s.135.171.509.171c.204 0 .68-.068.781 0h.442c.135 0 .271 0 .271-.068 0 0-.102-.069-.34-.069l-.849.069c-.135 0-.237 0-.237-.103 0-.137.068-.205.203-.205h.272l.34-.069v.069c0 .102-.102.137-.34.137h-.34c0 .102.102.102.17.102h.917c.272 0 .408.103.408.137 0 .103-.068.172-.17.206h.238v.103l.068-.069zm4.314 1.987c0 .274-.204.48-.34.48-.102 0-.272-.172-.272-.24 0 0 0-.069.068-.069l.102.069h.068c0-.103-.068-.172-.204-.206h-.51v.206h-.543l-.475.068c-.102 0-.102-.137-.102-.171h.238c.17 0 .441 0 .441-.171 0-.069-.068-.103-.17-.103-.203 0-.51.103-.577.103l-.578.205c-.135 0-.441.171-.543.171-.102 0-.204-.102-.238-.17 0-.07.136-.206.17-.206l.136.068s.17-.103.136-.137c0-.137-.442-.205-.476-.411l.204-.103h.102v.137h.068c.068 0 .17 0 .136-.068 0-.069-.102-.069-.102-.103a.64.64 0 0 1 .407-.137c.238 0 .408 0 .408.206 0 .17.102.205.442.205h.849l.407.137h.34c0-.103-.136-.171-.34-.205h-.815c-.136 0-.238-.103-.238-.206 0-.068.102-.137.238-.137h.612c0 .103-.102.103-.34.103-.17 0-.34 0-.34.068 0 .069.102.069.17.069h.883c.272.103.408.205.408.274 0 .103-.068.171-.204.171.102.069.17.069.272.069l.102.034zm-.612 1.267c0 .206-.17.343-.271.343-.136 0-.272-.137-.272-.172v-.068h.238c0-.069-.102-.103-.204-.137h-.34c0 .068 0 .137-.102.137h-.34l-.34.068c-.101 0-.135-.102-.135-.137 0-.034.136 0 .204 0 .136 0 .34-.068.34-.17h-.612c0 .068-.408.17-.475.205l-.408.102c-.102 0-.204-.068-.204-.102 0-.069.102-.172.136-.172l.136.069s.17-.069.136-.103c0-.068-.408-.137-.408-.342l.17-.069h.136v.137l.136.069s.136 0 .136-.103-.102-.069-.102-.103c-.068-.103 0-.171.17-.171.203 0 .34 0 .34.171s.101.171.339.206h.68l.407.068h.271c0-.068-.101-.103-.271-.137h-.781c-.17 0-.238-.103-.238-.171 0-.069.068-.103.204-.103h.543c0 .103-.102.137-.34.103h-.237l.101.103h.748c.271.068.34.17.34.205 0 0-.069.103-.17.103.068 0 .135 0 .203.068v.069l.136.034zm-.68 1.2c0 .136-.101.342-.169.273-.102 0-.204-.137-.204-.171h.136s0-.137-.102-.137h-.34v.137h-.34l-.237.068c-.068 0-.068-.068-.068-.102h.17c.102 0 .272-.069.272-.137 0-.069 0-.103-.068-.103l-.34.068-.441.103-.34.103-.136-.069c0-.068.102-.137.136-.137l.102.069s.136-.069.102-.103c0-.137-.34-.171-.34-.342h.238v.068h.068v-.068c0-.069.068-.137.204-.137.17 0 .271 0 .271.137 0 .102.068.102.34.137h.476l.271.068h.238l-.238-.137h-.611c-.102 0-.17-.068-.17-.103 0-.102.068-.137.136-.137h.306c0 .103-.102.103-.204.103h-.204.102c.17 0 .475 0 .611.069.204 0 .272.068.272.137 0 .068-.068.102-.136.102h.17v.069l.068.171zm-1.97-7.023s-.067-.103-.101-.068l.204-.069c0-.068-.068-.103-.102-.137v-.068c.17 0 .475.068.475.205l-.068.171c.102.137.51.343.68.343.068 0 .34-.171.34-.274 0-.069-.204 0-.204-.137 0-.069.203-.137.237-.137l-.237-.069v-.137l.747-.137c.102 0 .272.24.272.343 0 .103-.068.103-.068.171v.274l-.238.685c0 .411.543.822.68.857.101 0 .135 0 .135-.103.068-.206-.34-.685-.34-1.199 0-.274.17-.788.51-.685.136 0 .238.068.238.205 0 .206-.136.446-.136.514 0 .171.068.274.136.274s.068-.068.102-.068c.034 0 .068.137 0 .171 0 .069-.068.103-.136.103-.136 0-.34-.206-.34-.446.068-.24.204-.342.238-.445 0 0 0-.103-.102-.103-.102-.068-.204 0-.272.103l-.136.445c0 .686.51 1.028.442 1.37 0 .07-.136.103-.204.103-.136-.068-.272-.102-.34-.205l-.135.205c0 .24.271.274.237.446 0 .274-.407.48-.611.548v-.069c.102-.137 0-.24-.068-.205v-.103c.068-.069.17-.103.17-.171l-.102-.103c.068 0 .204 0 .34.137v-.103c0-.342-.442-.103-.408-.48v-.136c-.068-.069-.136 0-.238 0l.068.137c0 .205-.475.205-.68.342l-.237.24.068-.274c0-.137-.068-.171-.17-.171 0-.137.204-.103.17-.24 0 0 0-.069-.102-.103 0-.068 0-.068.068-.068.136 0 .204.205.34.17.068 0 .136-.102.136-.17l-.102-.343c0-.103.204 0 .204-.171 0-.103-.17-.274-.238-.274l-.204.137c-.068 0-.408 0-.577.24-.068.102-.17.137-.238.17l.102-.273c0-.069-.068-.103-.136-.103.102-.068.204-.137.204-.205 0-.069 0-.103-.102-.103h.203c.068 0 .102.171.17.171 0 0 0-.068.068-.068.102 0 .272-.069.238-.172l-.34-.24c-.102-.068-.34-.342-.34-.41-.101-.07-.271-.103-.339-.07 0-.102.204-.068.17-.17v.205zm-3.192 4.11l.068.206c0 .069-.102.206-.204.206-.17 0-.204-.172-.204-.343a.342.342 0 0 0-.34-.342c-.17 0-.339.137-.339.342v.171c0 .103 0 .137.102.137l.102-.068s.068 0 .068.103c0 .274-.34.41-.34.616 0 .069.102.137.17.171.102 0 .204.103.238.206.237 1.028 1.087 1.713 2.581 2.226v-4.041c-.577 0-1.528.102-1.698.137-.204 0-.238.068-.238.17l.034.104zm.17.686l1.46.856v.342l-1.698-1.027c.102 0 .204-.103.272-.171h-.034zm-.374.274l1.868 1.027v.343l-1.902-1.028v-.377l.034.035zm.068.616l1.8 1.028v.48c-.815-.343-1.562-.926-1.8-1.508zm1.8-1.199l-.849-.48.85-.068v.548zm-1.256-.342v-.069.069l1.256.685v.342l-1.29-.685V23.647l.034-.035z" fill="#7F7F7F" fill-rule="nonzero"/></svg>