<svg width="206" height="60" xmlns="http://www.w3.org/2000/svg"><g fill-rule="nonzero" fill="none"><path d="M19.2 13h33.6v34.2H19.2V13zm2.474 5.368c1.5 6.952 2.843 13.942 4.288 20.908.264.834.1 1.935.913 2.494 1.465.233 2.968.175 4.446.075.804.025.997-.918 1.143-1.523 1.01-4.959 2.106-9.9 3.111-14.86.08-.459.222-.905.44-1.318 1.252 5.322 2.286 10.69 3.45 16.028.159.568.192 1.268.753 1.614 1.6.192 3.241.209 4.836-.012.574-.338.603-1.034.75-1.61 1.478-7.261 2.855-14.552 4.417-21.796-1.411.008-2.818.004-4.225.004-1.122 6.319-2.022 12.679-3.261 18.977-1.395-5.343-2.328-10.815-3.542-16.208-.277-.921-.151-2.264-1.164-2.732a30.023 30.023 0 0 0-3.727 0c-.703.059-.862.889-1 1.44-1.123 5.346-2.3 10.68-3.396 16.027a9.68 9.68 0 0 1-.469 1.444 783.928 783.928 0 0 1-3.165-18.948c-1.533-.004-3.065.004-4.598-.004z" fill="#7F7F7F"/><path d="M52.8 13h33.6v34.2H52.8V13zm8.605 5.143a173.907 173.907 0 0 0 0 4.2c1.931.012 3.863.004 5.794.004-.008 5.167-.008 10.339 0 15.506-1.931 0-3.863-.008-5.794.005-.017 1.4-.017 2.798.004 4.2 5.46.012 10.921.012 16.382 0 .02-1.398.017-2.8.008-4.196-1.935-.017-3.867-.009-5.798-.009.008-5.167.008-10.339 0-15.506 1.931 0 3.863.008 5.794-.005.017-1.4.017-2.802-.004-4.2-5.46-.012-10.921-.012-16.386 0z" fill="#FFF"/><path d="M86.4 13H120v34.2H86.4V13zm7.59 5.372v23.456h4.657v-9.176c2.524.009 5.05-.012 7.574.005.921-.088 2.018.567 1.997 1.576.117 2.536.335 5.063.494 7.595 1.478 0 2.952 0 4.43.004-.419-2.87.096-5.835-.716-8.646-.419-1.472-2.052-1.801-3.325-2.168.947-.5 2.16-.547 2.848-1.464.996-1.26 1.067-2.94 1.071-4.476-.016-1.793.026-3.766-1.117-5.271-.913-1.252-2.622-1.435-4.053-1.435-4.619-.004-9.241 0-13.86 0z" fill="#7F7F7F"/><path d="M119.4 13H153v34.2h-33.6V13zm6.042 5.147c-.017 1.393-.017 2.79-.009 4.183 1.075.02 2.149.02 3.223.012.021 5.172.021 10.344 0 15.516a165.62 165.62 0 0 0-3.219.004c-.012 1.397-.016 2.794.005 4.191 6.774.021 13.545.021 20.32 0 .033-2.765.012-5.53.012-8.295-1.47-.013-2.94-.013-4.41.004a662.248 662.248 0 0 0 0 4.091c-2.68.005-5.36-.016-8.04.013-.042-2.048-.012-4.1-.02-6.148h6.32v-3.991h-6.32c0-1.794-.005-3.587.004-5.38 2.612.004 5.22.004 7.832 0a338.386 338.386 0 0 0-.004 3.582h4.335c-.004-2.594.004-5.188-.004-7.782-6.678-.021-13.352-.021-20.025 0z" fill="#FFF"/><path d="M153.123 13H187.2v34.2h-34.077V13zm7.604 5.372v23.456c3.921-.008 7.838.017 11.76-.012 2.416-.046 5.23-.493 6.685-2.645 1.7-2.702 1.443-6.01 1.741-9.058-.302-3.053-.034-6.373-1.74-9.084-1.355-2.015-3.947-2.544-6.225-2.628-4.072-.067-8.149-.012-12.221-.03zm-83.254-.23c.021 1.398.021 2.8.004 4.2-1.916.013-3.833.005-5.75.005.009 5.167.009 10.339 0 15.506 1.917 0 3.834-.008 5.755.009.008 1.397.012 2.798-.009 4.195-5.419.013-10.837.013-16.256 0a155.775 155.775 0 0 1-.004-4.2c1.916-.012 3.833-.004 5.75-.004-.009-5.167-.009-10.339 0-15.506-1.917 0-3.834.008-5.75-.005a175.245 175.245 0 0 1 0-4.2 3522.01 3522.01 0 0 1 16.26 0zm48.216.005c6.643-.021 13.287-.021 19.935 0 .008 2.594 0 5.188.004 7.782h-4.316c-.004-1.197-.004-2.39.004-3.582-2.6.004-5.196.004-7.797 0-.008 1.793-.004 3.586-.004 5.38h6.291v3.991h-6.29c.008 2.048-.022 4.1.02 6.148 2.668-.03 5.335-.008 8.003-.013a665.248 665.248 0 0 1 0-4.091 220.17 220.17 0 0 1 4.39-.004c0 2.765.022 5.53-.012 8.295-6.744.021-13.484.021-20.228 0a174.55 174.55 0 0 1-.004-4.191c1.07-.013 2.135-.013 3.204-.004.021-5.172.021-10.344 0-15.516-1.07.009-2.139.009-3.208-.012-.009-1.393-.009-2.79.008-4.183z" fill="#7F7F7F"/><path d="M21.6 18.416c1.531.008 3.062 0 4.593.004a772.92 772.92 0 0 0 3.162 18.8c.189-.467.356-.939.469-1.431 1.096-5.306 2.271-10.599 3.392-15.904.139-.546.297-1.37 1-1.428a30.203 30.203 0 0 1 3.723 0c1.013.464.887 1.796 1.163 2.711 1.213 5.35 2.146 10.78 3.539 16.081 1.238-6.248 2.138-12.56 3.259-18.829 1.405 0 2.81.004 4.22-.004-1.56 7.188-2.936 14.422-4.413 21.627-.146.57-.175 1.262-.749 1.597-1.593.22-3.233.203-4.831.013-.56-.344-.594-1.04-.753-1.602-1.163-5.297-2.196-10.623-3.447-15.903-.217.41-.36.852-.44 1.307-1.003 4.92-2.099 9.825-3.107 14.745-.147.6-.339 1.535-1.142 1.51-1.477.1-2.978.158-4.443-.074-.811-.555-.648-1.647-.911-2.475-1.444-6.91-2.786-13.846-4.284-20.745zm71.937.004c4.614 0 9.232-.004 13.846 0 1.43 0 3.137.182 4.05 1.424 1.141 1.494 1.1 3.451 1.116 5.23-.004 1.523-.075 3.191-1.07 4.441-.687.91-1.9.956-2.845 1.452 1.271.365 2.903.692 3.321 2.152.812 2.79.297 5.732.715 8.58-1.476-.005-2.949-.005-4.425-.005-.16-2.512-.377-5.02-.494-7.536.021-1.001-1.075-1.651-1.995-1.564-2.523-.017-5.045.004-7.567-.004v9.104h-4.652V18.42zm4.652 3.824v6.741c2.781-.037 5.571.083 8.349-.058 1.493-.087 1.514-1.862 1.573-2.971-.046-1.22.184-2.843-.966-3.65-2.979-.153-5.97-.017-8.956-.062zm62.278-3.824c4.061.017 8.127-.037 12.19.03 2.27.082 4.856.607 6.207 2.606 1.703 2.69 1.435 5.984 1.736 9.013-.297 3.026-.042 6.307-1.736 8.989-1.452 2.135-4.258 2.578-6.668 2.624-3.911.029-7.818.004-11.73.012V18.42zm4.651 3.824V37.87c2.38-.004 4.76.004 7.145.004 1.142.021 2.527-.277 3.062-1.403.8-1.742.602-3.703.67-5.561-.088-2.326.246-4.751-.544-6.986-.356-1.142-1.64-1.684-2.765-1.672-2.523-.025-5.045.004-7.568-.008z" fill="#FFF"/><path d="M98.4 22.613c2.994.045 5.993-.09 8.978.062 1.154.804.923 2.422.97 3.64-.06 1.105-.08 2.876-1.578 2.962-2.784.14-5.581.02-8.37.058v-6.722zm67.097 0c2.528.012 5.057-.017 7.586.008 1.128-.012 2.415.528 2.772 1.667.792 2.229.457 4.647.545 6.966-.067 1.853.13 3.809-.671 5.546-.537 1.123-1.925 1.42-3.07 1.399-2.39 0-4.776-.008-7.162-.004V22.613z" fill="#7F7F7F"/></g></svg>