<svg xmlns="http://www.w3.org/2000/svg" width="43" height="43"><path fill="#304858" fill-rule="evenodd" d="M40.235 5.935c1.7 0 3.087 1.386 3.087 3.087v19.95a3.092 3.092 0 01-3.087 3.086h-1.461v1.583a3.092 3.092 0 01-3.087 3.087H5.44a3.092 3.092 0 01-3.087-3.087V13.69c0-1.7 1.386-3.086 3.087-3.086l1.46-.001V9.022c0-1.7 1.387-3.087 3.088-3.087h30.248zm-4.548 7.133H5.44a.63.63 0 00-.624.624V33.64c0 .34.283.623.624.623h30.248c.34 0 .624-.283.624-.623V13.69a.63.63 0 00-.624-.623zm4.548-4.67H9.987a.63.63 0 00-.624.624v1.583h26.324c1.7 0 3.087 1.386 3.087 3.087v15.903h1.461c.34 0 .624-.283.624-.624V9.021a.63.63 0 00-.624-.623zM12.68 19.62v4.67H8.131v-4.67h4.548z"/></svg>