<svg width="28" height="20" xmlns="http://www.w3.org/2000/svg"><g fill="none" fill-rule="evenodd"><g stroke="#304858" stroke-width="1.6"><path d="M5.224 1h19.952c.673 0 1.224.536 1.224 1.192v12.816c0 .656-.55 1.192-1.224 1.192H5.224C4.551 16.2 4 15.664 4 15.008V2.192C4 1.536 4.55 1 5.224 1z"/><path d="M2.224 4h19.952c.673 0 1.224.536 1.224 1.192v12.816c0 .656-.55 1.192-1.224 1.192H2.224C1.551 19.2 1 18.664 1 18.008V5.192C1 4.536 1.55 4 2.224 4z" fill="#FFF"/></g><path fill="#304858" d="M4 9h3v3H4z"/></g></svg>