<svg width="15" height="15" xmlns="http://www.w3.org/2000/svg"><path d="M14.02 0a.9.9 0 01.48.14l-.09-.05.13.07h.01l.17.14c.08.07.14.16.18.26a1.13 1.13 0 01.1.32v3.74c0 .27-.1.5-.28.7a.99.99 0 01-.7.28 1 1 0 01-.7-.29 1.02 1.02 0 01-.27-.56v-.13l-.01-1.26-4.81 4.81a.99.99 0 01-1.67-.7 1 1 0 01.2-.59l.08-.1h.01l.4-.4.39-.4 1.62-1.62 1.87-1.87.52-.52H10.4a.98.98 0 01-.6-.2l-.1-.09A.99.99 0 019.42 1a1 1 0 01.29-.7c.15-.14.35-.24.56-.27L10.4 0h3.63zm-12 11.79l.07.2.03.09.04.08.1.19.06.08.05.06.15.15.06.05.08.06.19.1.08.04.09.04.2.05.13.03h7.47c.34 0 .7.02 1.04-.02l-.14.01.1-.02.2-.05.1-.04.07-.03.19-.11.08-.06-.1.09.2-.16-.1.07.06-.05.15-.15.05-.06.06-.08.1-.19.04-.07-.04.11.1-.23-.06.1.03-.07.06-.21.02-.09-.01.13c0-.09.02-.17.03-.26l-.02.13v-.1l.01-.22V7.75a.99.99 0 01.98-.98 1 1 0 01.7.28c.14.15.24.36.27.57l.01.12v3.73c0 .23-.03.45-.06.67a3.46 3.46 0 01-3.35 2.83H3.52a3.52 3.52 0 01-3.47-3.25l-.01-.23v-8A3.5 3.5 0 013.3.02L3.54 0h3.73c.27 0 .5.11.7.29a1 1 0 010 1.39c-.15.14-.36.24-.57.27l-.13.01h-3.7c-.12 0-.26 0-.39.03l.15-.02-.1.02-.22.06-.08.03-.08.04-.19.1-.08.07-.06.04-.15.15-.05.06-.05.09-.11.18-.04.09-.03.08-.06.2-.02.13v7.47c0 .26-.02.52 0 .78v.12L2 11.57l.03.26v-.13.09z" fill="#506b57" fill-rule="evenodd"/></svg>