<svg xmlns="http://www.w3.org/2000/svg" width="34" height="33" viewBox="0 0 34 33">
    <path fill="#B3BDC4" fill-rule="evenodd" d="M16.552 15a6.122 6.122 0 0 1 5.528 3.467 7.596 7.596 0 0 0 2.949 3.25A6.062 6.062 0 0 1 28 26.897C28.016 30.255 25.265 33 21.882 33a6.12 6.12 0 0 1-3.76-1.282 2.65 2.65 0 0 0-3.244 0A6.12 6.12 0 0 1 11.123 33C7.75 33.002 5 30.276 5 26.929a6.062 6.062 0 0 1 3.005-5.232 7.665 7.665 0 0 0 3.03-3.251A6.122 6.122 0 0 1 16.552 15zM1.49 9.445c1.967-1.195 5.132.1 7.071 2.892 1.938 2.792 1.916 6.024-.051 7.218-1.967 1.195-5.133-.1-7.071-2.892-1.938-2.792-1.916-6.024.051-7.218zm31.02 0c1.967 1.194 1.99 4.426.051 7.218-1.938 2.792-5.104 4.087-7.07 2.892-1.968-1.194-1.99-4.426-.052-7.218 1.939-2.792 5.104-4.087 7.07-2.892zM9.772.059c2.102-.46 4.356 1.828 5.034 5.109.678 3.281-.476 6.314-2.578 6.773-2.102.46-4.356-1.828-5.034-5.109C6.516 3.551 7.67.518 9.772.06zm9.422 5.109c.678-3.281 2.932-5.569 5.034-5.11 2.102.46 3.256 3.493 2.578 6.774-.678 3.281-2.932 5.569-5.034 5.11-2.102-.46-3.256-3.493-2.578-6.774z"/>
</svg>