<svg xmlns="http://www.w3.org/2000/svg" width="24" height="22"><g fill="#FFF" opacity="0.6" fill-rule="evenodd" transform="translate(-1 -1)"><path d="M17.94 23l-3.45-.76a8.57 8.57 0 00-3.86.16c-.87.21-1.75.44-2.64.5-2.4.18-4.27-1.67-3.95-3.83.19-1.33 5.69-7.46 6.16-7.9 1.64-1.54 4.3-1.6 5.77.06 1.65 1.87 5.84 7.15 5.99 7.99.3 1.68-1.05 3.27-2.91 3.64l-.54.14h-.57z"/><ellipse cx="4" cy="11.5" rx="2" ry="3.5" transform="rotate(-31 4 11.5)"/><ellipse cx="22" cy="11.5" rx="2" ry="3.5" transform="scale(-1 1) rotate(-31 0 90.83)"/><ellipse cx="17" cy="5.5" rx="3" ry="4.5" transform="scale(-1 1) rotate(-5 0 394.86)"/><ellipse cx="9" cy="5.5" rx="3" ry="4.5" transform="rotate(-5 9 5.5)"/></g></svg>
