<svg height="17" width="24" xmlns="http://www.w3.org/2000/svg" xmlns:xlink="http://www.w3.org/1999/xlink"><mask id="a" fill="#fff"><path d="m0 0h24v16.91h-24z" fill="#fff" fill-rule="evenodd"/></mask><g fill="none" fill-rule="evenodd"><path d="m23.498 2.64a3.015 3.015 0 0 0 -2.121-2.135c-1.872-.505-9.377-.505-9.377-.505s-7.505 0-9.377.505a3.015 3.015 0 0 0 -2.122 2.135c-.501 1.884-.501 5.815-.501 5.815s0 3.93.501 5.814a3.016 3.016 0 0 0 2.122 2.135c1.872.505 9.377.505 9.377.505s7.505 0 9.377-.505a3.016 3.016 0 0 0 2.121-2.135c.502-1.884.502-5.814.502-5.814s0-3.93-.502-5.815" fill="#f00" mask="url(#a)"/><path d="m9.545 12.023 6.273-3.568-6.273-3.569z" fill="#fff"/></g></svg>