<svg width="24" height="24" xmlns="http://www.w3.org/2000/svg">
  <g fill="none" fill-rule="evenodd">
    <path d="M22.224 0H1.77C.794 0 0 .775 0 1.73v20.538C0 23.224.794 24 1.771 24h20.453c.979 0 1.776-.776 1.776-1.732V1.73C24 .775 23.203 0 22.224 0" fill="#0077B5"/>
    <path d="M5.339 3.304a2.065 2.065 0 1 1-.003 4.13 2.065 2.065 0 0 1 .003-4.13zm-1.78 17.147h3.559V8.998h-3.56V20.45zM9.35 8.998h3.415v1.565h.048c.475-.9 1.636-1.85 3.368-1.85 3.604 0 4.27 2.372 4.27 5.456v6.282h-3.557v-5.57c0-1.328-.025-3.037-1.85-3.037-1.852 0-2.136 1.447-2.136 2.941v5.666H9.35V8.998z" fill="#FEFEFE"/>
  </g>
</svg>
