<svg height="60" width="206" xmlns="http://www.w3.org/2000/svg"><path d="m17.447 23.37a9.39 9.39 0 0 1 -1.398-.11v8.054c0 .222 0 .222-.133.333l-4.549 2.884a5.027 5.027 0 0 0 2.33.577c2.884 0 6.168-1.553 7.699-5.547.089-.222.266-.266.266.111v.31c0 4.327-3.328 8.21-8.209 8.21-5.325 0-8.498-3.994-8.498-8.165 0-3.106 1.709-6.057 5.614-7.277.177-.067.222 0 .088.11-1.708 1.332-2.662 3.506-2.662 5.703 0 2.307.954 4.592 3.017 5.835l1.154-.888c.377-.288.444-.554.444-.998v-9.962c-1.243-.444-2.352-.732-3.395-.732-1.442 0-2.729.665-3.993 2.152-.111.177-.222.177-.222 0 .177-3.062 2.928-4.815 5.657-4.815 3.151 0 6.035 1.553 9.186 1.553a6.69 6.69 0 0 0 3.195-.798c.155 0 .177.088.11.222-.998 2.44-3.394 3.261-5.768 3.261l.067-.022zm14.82 14.578c-.11.11-.11.066-.221 0l-2.152-1.908c-.222-.222-.311-.355-.311-.71v-7.455c0-.111 0-.178-.11-.266l-.71-.666c-.09-.044-.223-.067-.312 0l-1.375.666v7.01c0 .112-.044.223.066.29l.622.554c.177.133.443.288.665.222l.222-.089c.289-.11.355.044.178.222l-2.485 2.13c-.111.11-.133.066-.222 0l-2.219-1.93c-.222-.222-.222-.289-.222-.666v-12.07c0-.133 0-.155-.177-.266l-.266-.222c-.267-.266-.378-.222-.733-.044l-.554.221c-.067.045-.156-.066 0-.221l2.817-2.419c.09-.11.09-.089.178 0l1.775 1.553c.222.222.31.378.31.733v4.548l3.617-2.285a.378.378 0 0 1 .31 0l1.731 1.664c.222.222.31.377.31.665v7.455c0 .133 0 .178.134.289l.666.532c.288.222.399.222.754.044l.555-.221c.066-.067.155.044 0 .177l-2.885 2.44.045.023zm11.582-9.03-4.792 3.017v2.33c0 .222 0 .288.222.377l1.553.82c.266.134.732.267.998.112l1.42-.843c.222-.156.444-.09.31 0l-3.993 3.217c-.044.089 0 .044-.133 0l-3.55-1.864c-.222-.11-.333-.155-.333-.532v-8.653c0-.111.067-.156.222-.222l5.769-1.842c.066-.044.155-.066.222.045l2.152 3.816c.044.089.044.155-.067.222zm-4.748-2.663-.044.045v5.258l1.908-1.553c.111-.111.111-.155.044-.222l-1.908-3.55zm24.495 8.276-3.927 3.395c-.111.066-.222.133-.31.066-2.375-1.176-4.394-1.82-6.435-1.82-1.686 0-3.328.578-5.214 1.776-.155.133-.266.11-.155-.089.976-1.553 2.285-3.24 3.927-3.994 0-.11.066-.443.066-.976v-7.987c0-.133.045-.178.156-.222l3.106-1.908a9.723 9.723 0 0 1 -2.108.222c-2.818 0-4.282-1.376-4.792-3.617 0-.11 0-.133.11-.11 1.42.71 2.619.953 3.772.953 1.997 0 4.793-1.065 6.523-1.065 3.462 0 5.37 1.442 5.37 6.168v8.92a.395.395 0 0 1 -.133.288zm-3.328-9.208c0-2.507-.777-3.195-1.997-3.195-.887 0-2.041.378-3.284.666v8.165c0 .133-.044.222-.133.288l-3.24 2.618c.844-.355 1.776-.51 2.708-.51 1.997 0 4.082.732 5.768 1.553.133.045.222 0 .222-.177v-9.408zm13.222 12.647c-.11.089-.133.044-.221 0l-2.485-2.174-2.93 2.174c-.11.089-.154.044-.221 0l-1.908-1.708c-.31-.222-.333-.311-.333-.666v-7.943c0-.133.133-.155.178-.178l6.323-2.618c.11-.066.222-.066.333.045l1.686 1.686c.222.222.333.4.333.555v7.699l.444.443c.62.51.71.444.976.333l.4-.222c.221-.11.443 0 .221.178l-2.796 2.352zm-2.706-10.162c0-.177 0-.266-.156-.4l-.976-.997c-.067-.045-.067 0-.155 0l-.666.31v7.854c0 .267.044.4.222.577l.377.31c.222.223.533.334.888.178l.443-.222v-7.61zm9.052 10.14c-.111.11-.133.066-.222 0l-2.219-1.93c-.222-.222-.222-.289-.222-.666v-7.477c0-.155 0-.178-.155-.289l-.288-.221c-.267-.267-.377-.222-.732-.067l-.577.222c-.067.066-.156-.045 0-.178l2.884-2.44c.111-.111.111-.067.178 0l1.774 1.553c.222.222.311.377.311.732v7.41c0 .112-.044.222.067.289l.62.555c.156.133.445.288.667.222l.221-.09c.267-.11.333.045.156.223l-2.507 2.13zm-1.376-13.712c-.088.067-.11.045-.222 0l-2.04-1.841c-.067-.045-.067-.111 0-.178l2.063-1.82c.11-.044.133-.044.222 0l2.063 1.842c.089.045.089.111 0 .156l-2.063 1.841zm7.544 13.712c-.133.11-.155.066-.222 0l-2.219-1.93c-.288-.222-.288-.289-.288-.666v-12.07c0-.133 0-.155-.133-.266l-.222-.222c-.288-.266-.4-.222-.754-.044l-.555.221c-.067.045-.133-.066 0-.221l2.84-2.419c.11-.11.11-.089.222 0l1.708 1.553c.222.222.333.378.333.733v11.98c0 .134 0 .222.089.311l.62.555c.156.133.445.288.667.222l.221-.089c.289-.11.333.044.178.222l-2.507 2.13zm12.38 1.886-2.994 2.396c-.089.089-.133.044-.222 0-1.553-1.043-2.795-1.553-4.17-1.553-.955 0-1.909.222-3.107.532-.133.045-.155-.044-.111-.133 1.287-1.93 2.884-2.53 4.349-2.53 2.174 0 4.215 1.332 5.036 1.887l.089-.067c.222-.488.288-.954.288-1.375 0-1.398-1.11-2.508-2.551-3.218l-2.929 2.153c-.133.066-.155.066-.222 0l-1.997-1.775c-.266-.222-.266-.222-.266-.6v-7.676c0-.111 0-.133-.11-.222l-.378-.355c-.266-.222-.377-.178-.732 0l-.555.222c-.089 0-.155-.067 0-.222l2.884-2.44c.09-.09.09-.067.178 0l1.797 1.686c.222.222.355.355.355.71v7.432c0 .156 0 .289.111.355l.666.6c.222.221.554.11.776 0l.444-.178v-7.588c0-.133 0-.133-.155-.222l-.378-.355c-.221-.222-.332-.222-.71-.11l-.221.043c-.067 0-.156-.088 0-.221l2.551-2.153c.089-.11.089-.088.178 0l1.886 1.664c.221.222.31.355.31.71v7.167c1.11.843 1.62 1.686 1.62 2.551 0 .954-.444 1.864-1.664 2.885h-.045zm18.638-16.485a8.98 8.98 0 0 1 -1.332-.111v8.054c0 .222-.044.222-.155.332l-4.548 2.885a5.05 5.05 0 0 0 2.352.577c2.884 0 6.168-1.553 7.698-5.547.09-.222.289-.266.289.11v.311c0 4.327-3.328 8.21-8.21 8.21-5.324 0-8.497-3.994-8.497-8.165 0-3.106 1.73-6.057 5.613-7.278.178-.066.222 0 .09.111-1.71 1.332-2.663 3.506-2.663 5.702 0 2.308.954 4.593 3.017 5.836l1.154-.821c.4-.266.444-.577.444-1.02v-9.985c-1.243-.444-2.352-.732-3.395-.732-1.442 0-2.73.665-3.994 2.152-.11.177-.222.177-.222 0 .178-3.062 2.93-4.815 5.658-4.815 3.15 0 6.035 1.553 9.208 1.553 1.11 0 2.263-.266 3.217-.798.133 0 .155.088.11.222-.998 2.44-3.394 3.261-5.768 3.261zm13.822 5.546-4.814 3.018v2.33c0 .221.044.288.221.377l1.554.82c.266.134.732.267 1.02.112l1.42-.843c.222-.156.444-.09.289 0l-3.928 3.283c-.11.089-.066.045-.177 0l-3.55-1.864c-.222-.11-.333-.155-.333-.532v-8.653c0-.11.067-.155.222-.222l5.769-1.841c.066-.045.155-.067.222.044l2.13 3.816c.066.089.066.155-.045.222zm-4.748-2.662-.066.044v5.259l1.908-1.553c.088-.111.088-.156.044-.222l-1.908-3.55zm8.587 11.693c-.111.11-.134.066-.222 0l-2.219-1.93c-.266-.223-.266-.29-.266-.666v-12.048c0-.133 0-.155-.111-.266l-.266-.222c-.267-.266-.378-.222-.733-.044l-.554.221c-.09.045-.156-.066 0-.221l2.884-2.397c.089-.11.089-.088.178 0l1.73 1.554c.222.221.355.377.355.732v11.98c0 .134 0 .223.089.311l.621.555c.155.133.444.288.666.222l.222-.089c.288-.11.332.045.177.222l-2.507 2.13zm11.382-9.03-4.837 3.017v2.33c0 .221 0 .288.222.377l1.553.82c.266.134.732.267.998.112l1.442-.843c.267-.156.444-.09.31 0l-3.948 3.217c-.09.088-.067.044-.178 0l-3.528-1.842c-.266-.11-.355-.155-.355-.532v-8.653c0-.111.045-.156.222-.222l5.769-1.842c.066-.044.133-.066.222.045l2.13 3.816c.044.089.044.155-.045.222l.023-.023zm-4.793-2.663-.044.044v5.259l1.908-1.553c.11-.111.11-.156.044-.222l-1.908-3.55zm14.71 13.579-2.995 2.396c-.089.089-.133.044-.222 0-1.553-1.043-2.818-1.553-4.171-1.553-.954 0-1.908.222-3.15.532-.09.045-.134-.044-.067-.133 1.287-1.93 2.884-2.53 4.326-2.53 2.219 0 4.216 1.332 5.059 1.887l.066-.067c.222-.488.333-.954.333-1.376 0-1.397-1.153-2.507-2.573-3.217l-2.951 2.175c-.111.088-.222.044-.289 0l-1.841-1.709c-.267-.222-.31-.355-.31-.665v-7.899c0-.133.11-.155.154-.178l6.28-2.595c.155-.09.266-.09.332 0l1.775 1.708c.222.222.31.4.31.577v7.255c1.155.843 1.643 1.686 1.643 2.552 0 .954-.444 1.863-1.664 2.884zm-3.417-12.092a.323.323 0 0 0 -.155-.289l-.998-.998c-.067-.045-.09 0-.178 0l-.665.31v7.766c0 .444.133.51.554.932.222.222.4.288.666.288.222 0 .532-.155.754-.288v-7.7zm12.292.599c-.133.133-.288.221-.444.221-.11 0-.222-.088-.377-.221l-1.664-1.398-.177.133v7.588c0 .155 0 .222.11.266l.444.4c.444.377.555.443 1.043.221l.333-.133c.222-.088.266 0 .133.156l-2.818 2.396c-.088.11-.11.066-.222 0l-2.13-1.908c-.221-.222-.31-.31-.31-.6v-7.787l-.666-.666c-.044-.066-.089-.066-.155 0l-.821.444c-.222.155-.333-.044-.178-.177l2.818-2.374c.111-.09.156-.09.222 0l1.908 1.863 1.908-1.886c.111-.088.178-.11.289 0l1.42 1.332c.288.222.443.377.599.377a.769.769 0 0 0 .443-.155l.378-.222c.222-.178.355.066.222.222zm10.05 9.629c-.11.11-.132.066-.221 0l-2.485-2.152-2.929 2.174c-.11.089-.133.044-.222 0l-1.908-1.708c-.31-.222-.332-.311-.332-.666v-7.943c0-.133.11-.155.177-.178l6.323-2.618c.111-.066.222-.066.311.045l1.686 1.686c.222.222.31.4.31.555v7.699l.511.443c.6.51.666.444.954.333l.377-.222c.222-.11.444 0 .222.178l-2.795 2.352.022.022zm-2.706-10.14c0-.177 0-.266-.155-.4l-.977-.997c-.066-.045-.066 0-.133 0l-.665.31v7.854c0 .267 0 .4.222.577l.355.31c.221.223.554.334.887.178l.444-.222v-7.61zm15.531 8.143-2.44 1.908c-.289.222-.333.155-.666 0l-2.596-1.597v3.15l.732.666c.111.044.111.11 0 .177l-2.13 1.997c-.044 0-.11.089-.222 0l-2.396-1.93c-.089-.045-.044-.089 0-.178l.6-.665v-11.826l-.6-.71c0-.044-.044-.044-.11 0l-.8.4c-.177.11-.31 0-.155-.156l2.773-2.33c.09-.088.222-.088.222 0l2.042 1.953 3.66-1.953c.09-.044.178 0 .222 0l1.775 1.687c.156.155.333.377.333.62v8.343c0 .222 0 .31-.222.444zm-3.217-8.076a.638.638 0 0 0 -.155-.4l-.777-.732c-.044-.088-.11-.088-.222-.066l-1.331.532v8.653l.754.222c.666.222.888.222 1.176-.044l.289-.222c.222-.222.266-.488.266-.932zm14.022 10.073c-.11.11-.11.066-.222 0l-2.152-1.908c-.222-.222-.333-.355-.333-.71v-7.455c0-.111 0-.178-.11-.266l-.733-.666c-.089-.044-.222-.067-.288 0l-1.42.666v7.01c0 .112 0 .223.089.29l.62.554c.156.133.445.288.666.222l.222-.089c.289-.11.333.044.178.222l-2.507 2.13c-.111.11-.133.066-.222 0l-2.219-1.93c-.266-.222-.266-.289-.266-.666v-12.07c0-.133 0-.155-.111-.266l-.266-.222c-.289-.266-.4-.222-.755-.044l-.554.221c-.09.045-.178-.066 0-.221l2.884-2.397c.089-.11.089-.088.155 0l1.775 1.554c.222.221.31.377.31.732v4.548l3.662-2.307c.088-.045.222-.045.288 0l1.775 1.664c.222.222.289.377.289.665v7.455c0 .133 0 .178.133.289l.665.532c.289.222.4.222.755.044l.554-.221c.111-.067.178.044.045.177l-2.885 2.44z" fill="#7f7f7f"/></svg>