<svg width="11" height="11" xmlns="http://www.w3.org/2000/svg"><path d="M9.36 2.572l.585-.585c.174-.174.352-.347.524-.524l.008-.008a.674.674 0 0 0 .192-.462V3.414a.677.677 0 0 1-.192.462.66.66 0 0 1-.462.192.669.669 0 0 1-.463-.192.674.674 0 0 1-.192-.462V2.572l-.497.497-1.247 1.247-1.032 1.032-.433.433a.679.679 0 0 1-.462.192.657.657 0 0 1-.654-.655c0-.167.073-.343.192-.462l.007-.007c.173-.177.35-.35.525-.525l1.082-1.082 1.247-1.247.348-.348zm1.258-1.83a.724.724 0 0 1 .05.221zM9.36 5.496c0-.178.075-.335.192-.461a.66.66 0 0 1 .463-.192.669.669 0 0 1 .462.192.674.674 0 0 1 .192.462V7.982c0 .15-.02.297-.043.444a2.26 2.26 0 0 1-.2.602c-.177.38-.482.694-.828.923-.407.27-.884.367-1.365.367H3.016a2.348 2.348 0 0 1-2.013-1.163 2.354 2.354 0 0 1-.31-1.16v-.141-.865V5.66 4.246 3.12v-.459a2.33 2.33 0 0 1 .742-1.7A2.326 2.326 0 0 1 3.025.34h2.489c.176 0 .334.074.462.192a.66.66 0 0 1 .192.462.669.669 0 0 1-.192.462.674.674 0 0 1-.462.192H3.185c-.132 0-.265-.002-.397.016l.174-.023c-.146.02-.288.059-.423.115l.156-.065a1.699 1.699 0 0 0-.37.216l.132-.103a1.709 1.709 0 0 0-.3.301l.102-.132c-.087.114-.16.238-.216.37l.065-.156a1.726 1.726 0 0 0-.115.423l.023-.174c-.01.075-.016.15-.016.226v4.864c0 .23-.014.467.016.695l-.023-.174c.02.146.059.287.115.423a22.593 22.593 0 0 1-.065-.156c.056.132.129.255.216.37l-.103-.133c.088.113.189.214.301.301l-.132-.102c.114.087.238.16.37.216L2.539 8.9c.136.057.277.095.423.116l-.174-.023c.075.01.15.015.227.015h4.864c.229 0 .466.014.694-.015l-.174.023c.146-.02.288-.059.423-.116l-.156.066c.132-.056.255-.129.37-.216l-.132.102c.112-.087.213-.188.3-.3l-.102.131c.087-.113.16-.237.216-.37a22.59 22.59 0 0 0-.066.157c.057-.137.095-.277.116-.423l-.023.174c.02-.15.015-.302.015-.454V6.4v-.905z" fill="#506B57" fill-rule="evenodd"/></svg>
