<svg xmlns="http://www.w3.org/2000/svg" width="34" height="34"><path fill="#304858" fill-rule="evenodd" d="M21.081 14.19c0-2.026.133-3.831-.036-5.61-.185-1.965-1.888-3.357-3.847-3.449-1.939-.09-3.918 1.173-4.157 3.058-.247 1.958-.055 3.973-.055 6h8.095zm2.317-.11c2.835.225 3.617 1.835 3.51 4.345-.137 3.161-.005 6.333-.045 9.5-.027 2.304-.847 3.181-3.099 3.206-4.491.047-8.984.047-13.476.001-2.359-.025-3.14-.895-3.16-3.375-.027-3.166.085-6.337-.038-9.5-.094-2.446.734-3.952 3.505-4.138 0-1.72-.062-3.368.012-5.008.164-3.628 2.865-6.26 6.358-6.278 3.516-.017 6.238 2.576 6.42 6.207.083 1.648.013 3.303.013 5.04z"/></svg>