<svg xmlns="http://www.w3.org/2000/svg" width="26" height="26"><defs><radialGradient id="a" cx="1.819%" cy="90.845%" r="144.605%" fx="1.819%" fy="90.845%" gradientTransform="matrix(.99843 -.05234 .05233 .99863 -.048 .002)"><stop offset="0%" stop-color="#FED576"/><stop offset="26.34%" stop-color="#F47133"/><stop offset="60.91%" stop-color="#BC3081"/><stop offset="100%" stop-color="#4C63D2"/></radialGradient><radialGradient id="b" cx="1.814%" cy="90.83%" r="144.604%" fx="1.814%" fy="90.83%"><stop offset="0%" stop-color="#FED576"/><stop offset="26.34%" stop-color="#F47133"/><stop offset="60.91%" stop-color="#BC3081"/><stop offset="100%" stop-color="#4C63D2"/></radialGradient></defs><g fill="none"><path fill="url(#a)" d="M4.488.696a6.362 6.362 0 0 0-2.3 1.498A6.343 6.343 0 0 0 .692 4.488C.369 5.311.153 6.255.09 7.637.026 9.018.01 9.46.01 12.984c0 3.523.016 3.966.08 5.348.063 1.382.284 2.326.6 3.148a6.362 6.362 0 0 0 1.499 2.3 6.362 6.362 0 0 0 2.299 1.497c.823.322 1.767.538 3.149.602 1.381.063 1.824.079 5.347.079 3.523 0 3.966-.016 5.348-.08 1.382-.063 2.326-.284 3.148-.6a6.362 6.362 0 0 0 2.3-1.498 6.362 6.362 0 0 0 1.497-2.3c.322-.822.538-1.766.602-3.148.063-1.382.079-1.825.079-5.348 0-3.523-.016-3.966-.08-5.347-.063-1.382-.284-2.326-.6-3.149a6.397 6.397 0 0 0-1.493-2.294 6.362 6.362 0 0 0-2.3-1.498C20.664.374 19.72.158 18.338.095c-1.382-.063-1.825-.08-5.348-.08-3.522 0-3.965.017-5.347.08-1.387.058-2.331.28-3.154.601zm13.738 1.73c1.266.058 1.952.269 2.41.448a4.041 4.041 0 0 1 1.493.97c.454.454.733.887.97 1.493.18.459.39 1.145.449 2.41.063 1.366.074 1.778.074 5.242 0 3.465-.016 3.877-.074 5.243-.058 1.265-.27 1.951-.449 2.41a4.041 4.041 0 0 1-.97 1.492 4.041 4.041 0 0 1-1.492.97c-.46.18-1.145.39-2.41.449-1.367.063-1.778.074-5.243.074-3.465 0-3.876-.016-5.242-.074-1.266-.058-1.951-.269-2.41-.448a4.041 4.041 0 0 1-1.493-.97 4.041 4.041 0 0 1-.97-1.493c-.18-.459-.39-1.145-.448-2.41-.064-1.366-.074-1.778-.074-5.243 0-3.464.016-3.876.074-5.242.058-1.265.269-1.951.448-2.41a4.041 4.041 0 0 1 .97-1.492 4.041 4.041 0 0 1 1.493-.97c.459-.18 1.144-.391 2.41-.449 1.366-.063 1.777-.074 5.242-.074s3.876.01 5.242.074z"/><path fill="url(#b)" d="M6.323 12.99a6.661 6.661 0 1 0 13.323-.001 6.661 6.661 0 0 0-13.323 0zm10.986 0a4.324 4.324 0 0 1-4.325 4.324 4.324 4.324 0 0 1-4.324-4.325 4.324 4.324 0 0 1 4.324-4.324 4.324 4.324 0 0 1 4.325 4.324z"/><circle cx="19.914" cy="6.065" r="1.556" fill="#654C9F"/></g></svg>