<svg width="24" height="24" xmlns="http://www.w3.org/2000/svg">
  <g fill="none">
    <path d="M22.675 0H1.324C.592 0 0 .593 0 1.325v21.351C0 23.408.593 24 1.325 24H12.82v-9.281H9.703v-3.633h3.117V8.412c0-3.1 1.893-4.787 4.659-4.787 1.324 0 2.463.098 2.794.142v3.24h-1.907c-1.504 0-1.796.716-1.796 1.765v2.314h3.598l-.469 3.633H16.57V24h6.105A1.325 1.325 0 0024 22.675V1.324C24 .592 23.407 0 22.675 0z" fill="#4267B2"/>
    <path d="M16.57 24v-9.281h3.13l.468-3.633H16.57V8.772c0-1.05.292-1.764 1.796-1.764h1.907v-3.24c-.331-.045-1.47-.143-2.794-.143-2.766 0-4.659 1.687-4.659 4.787v2.674H9.703v3.633h3.117V24h3.75z" fill="#FFF"/>
  </g>
</svg>
